<svg id="svg" version="1.1" xmlns="http://www.w3.org/2000/svg" xmlns:xlink="http://www.w3.org/1999/xlink" width="400" height="400" viewBox="0, 0, 400,400"><g id="svgg"><path id="path0" d="M218.800 0.400 C 218.800 0.626,217.667 0.800,216.200 0.800 C 214.156 0.800,213.600 0.928,213.600 1.400 C 213.600 1.880,213.000 2.000,210.600 2.000 C 208.200 2.000,207.600 2.120,207.600 2.600 C 207.600 3.052,207.114 3.200,205.629 3.200 C 204.410 3.200,203.428 3.429,203.057 3.800 C 202.726 4.132,201.748 4.400,200.871 4.400 C 199.831 4.400,199.206 4.606,199.055 5.000 C 198.921 5.351,198.321 5.600,197.613 5.600 C 196.801 5.600,196.400 5.799,196.400 6.200 C 196.400 6.600,196.000 6.800,195.200 6.800 C 194.400 6.800,194.000 7.000,194.000 7.400 C 194.000 7.819,193.578 8.000,192.600 8.000 C 191.622 8.000,191.200 7.819,191.200 7.400 C 191.200 7.070,190.949 6.800,190.643 6.800 C 190.336 6.800,189.982 6.530,189.855 6.200 C 189.729 5.870,189.169 5.600,188.613 5.600 C 187.979 5.600,187.600 5.375,187.600 5.000 C 187.600 4.556,187.133 4.400,185.800 4.400 C 184.467 4.400,184.000 4.244,184.000 3.800 C 184.000 3.335,183.471 3.200,181.643 3.200 C 179.916 3.200,179.224 3.039,179.055 2.600 C 178.879 2.140,178.121 2.000,175.813 2.000 C 173.378 2.000,172.800 1.883,172.800 1.389 C 172.800 0.496,150.479 0.530,150.136 1.423 C 149.965 1.869,149.060 2.000,146.157 2.000 C 143.084 2.000,142.400 2.109,142.400 2.600 C 142.400 3.067,141.865 3.200,139.987 3.200 C 138.212 3.200,137.514 3.358,137.345 3.800 C 137.194 4.192,136.571 4.400,135.545 4.400 C 134.518 4.400,133.895 4.608,133.745 5.000 C 133.588 5.407,132.950 5.600,131.757 5.600 C 130.462 5.600,130.000 5.758,130.000 6.200 C 130.000 6.591,129.608 6.800,128.876 6.800 C 128.259 6.800,127.404 7.064,126.976 7.387 C 126.549 7.710,125.835 7.980,125.389 7.987 C 124.943 7.994,123.987 8.540,123.264 9.200 C 122.542 9.860,121.525 10.400,121.004 10.400 C 120.483 10.400,119.787 10.670,119.457 11.000 C 119.127 11.330,118.659 11.600,118.416 11.600 C 118.173 11.600,117.871 11.870,117.745 12.200 C 117.618 12.530,117.172 12.800,116.753 12.800 C 116.335 12.800,115.684 13.160,115.307 13.600 C 114.930 14.040,114.212 14.400,113.711 14.400 C 113.168 14.400,112.800 14.642,112.800 15.000 C 112.800 15.330,112.530 15.600,112.200 15.600 C 111.870 15.600,111.600 15.858,111.600 16.173 C 111.600 16.502,111.130 16.801,110.500 16.873 C 109.881 16.945,109.444 17.219,109.500 17.500 C 109.555 17.775,109.324 18.000,108.987 18.000 C 108.649 18.000,107.845 18.540,107.200 19.200 C 106.555 19.860,105.841 20.400,105.613 20.400 C 105.386 20.400,105.200 20.670,105.200 21.000 C 105.200 21.330,104.930 21.600,104.600 21.600 C 104.270 21.600,104.000 21.870,104.000 22.200 C 104.000 22.530,103.717 22.800,103.371 22.800 C 102.584 22.800,101.600 23.756,101.600 24.521 C 101.600 24.844,101.070 25.206,100.400 25.340 C 99.447 25.531,99.200 25.788,99.200 26.590 C 99.200 27.221,98.975 27.600,98.600 27.600 C 98.270 27.600,98.000 27.774,98.000 27.986 C 98.000 28.483,90.072 36.400,89.575 36.400 C 89.369 36.400,89.200 36.670,89.200 37.000 C 89.200 37.330,88.930 37.600,88.600 37.600 C 88.270 37.600,88.000 37.780,88.000 38.000 C 88.000 38.519,86.519 40.000,86.000 40.000 C 85.780 40.000,85.600 40.175,85.600 40.389 C 85.600 40.604,84.790 41.589,83.800 42.579 C 82.810 43.569,82.000 44.724,82.000 45.147 C 82.000 45.569,81.730 46.018,81.400 46.145 C 81.070 46.271,80.800 46.651,80.800 46.987 C 80.800 47.324,80.582 47.600,80.315 47.600 C 80.048 47.600,78.248 49.220,76.315 51.200 C 74.381 53.180,72.619 54.800,72.400 54.800 C 72.180 54.800,72.000 55.070,72.000 55.400 C 72.000 55.730,71.730 56.000,71.400 56.000 C 71.070 56.000,70.800 56.173,70.800 56.385 C 70.800 56.597,69.720 57.864,68.400 59.200 C 67.080 60.536,66.000 61.803,66.000 62.015 C 66.000 62.227,65.730 62.400,65.400 62.400 C 65.070 62.400,64.800 62.670,64.800 63.000 C 64.800 63.330,64.530 63.600,64.200 63.600 C 63.800 63.600,63.600 64.000,63.600 64.800 C 63.600 65.460,63.415 66.000,63.189 66.000 C 62.964 66.000,61.969 66.810,60.979 67.800 C 59.989 68.790,59.004 69.600,58.789 69.600 C 58.575 69.600,58.400 69.870,58.400 70.200 C 58.400 70.530,58.130 70.800,57.800 70.800 C 57.470 70.800,57.200 71.070,57.200 71.400 C 57.200 71.730,56.930 72.000,56.600 72.000 C 56.270 72.000,56.000 72.169,56.000 72.376 C 56.000 72.582,54.650 74.106,53.000 75.761 C 51.350 77.417,50.000 78.958,50.000 79.185 C 50.000 79.413,49.730 79.600,49.400 79.600 C 49.070 79.600,48.800 79.870,48.800 80.200 C 48.800 80.530,48.530 80.800,48.200 80.800 C 47.870 80.800,47.600 81.070,47.600 81.400 C 47.600 81.730,47.330 82.000,47.000 82.000 C 46.670 82.000,46.400 82.174,46.400 82.387 C 46.400 82.599,45.770 83.403,45.000 84.173 C 44.230 84.943,43.600 85.747,43.600 85.958 C 43.600 86.170,41.710 88.238,39.400 90.553 C 37.090 92.869,35.200 94.952,35.200 95.182 C 35.200 95.412,34.930 95.600,34.600 95.600 C 34.270 95.600,34.000 95.870,34.000 96.200 C 34.000 96.530,33.730 96.800,33.400 96.800 C 33.070 96.800,32.800 97.070,32.800 97.400 C 32.800 97.730,32.530 98.000,32.200 98.000 C 31.870 98.000,31.600 98.270,31.600 98.600 C 31.600 98.930,31.330 99.200,31.000 99.200 C 30.670 99.200,30.400 99.470,30.400 99.800 C 30.400 100.130,30.130 100.400,29.800 100.400 C 29.470 100.400,29.200 100.670,29.200 101.000 C 29.200 101.330,29.036 101.600,28.836 101.600 C 28.133 101.600,23.954 105.949,23.894 106.742 C 23.861 107.184,23.690 107.456,23.514 107.347 C 23.338 107.238,23.071 107.471,22.920 107.863 C 22.770 108.256,22.141 109.071,21.523 109.675 C 20.905 110.279,20.400 110.959,20.400 111.187 C 20.400 111.414,20.130 111.600,19.800 111.600 C 19.470 111.600,19.200 111.870,19.200 112.200 C 19.200 112.530,18.930 112.800,18.600 112.800 C 18.270 112.800,18.000 113.051,18.000 113.357 C 18.000 113.664,17.730 114.018,17.400 114.145 C 17.070 114.271,16.800 114.831,16.800 115.387 C 16.800 116.021,16.575 116.400,16.200 116.400 C 15.870 116.400,15.600 116.676,15.600 117.013 C 15.600 117.349,15.330 117.729,15.000 117.855 C 14.670 117.982,14.395 118.381,14.389 118.743 C 14.383 119.104,13.830 119.938,13.160 120.596 C 12.490 121.254,11.845 122.277,11.726 122.870 C 11.607 123.463,11.260 124.045,10.955 124.162 C 10.650 124.279,10.400 124.831,10.400 125.387 C 10.400 126.021,10.175 126.400,9.800 126.400 C 9.400 126.400,9.200 126.800,9.200 127.600 C 9.200 128.400,9.000 128.800,8.600 128.800 C 8.200 128.800,8.000 129.200,8.000 130.000 C 8.000 130.800,7.800 131.200,7.400 131.200 C 6.985 131.200,6.800 131.617,6.800 132.551 C 6.800 133.294,6.530 134.126,6.200 134.400 C 5.870 134.674,5.600 135.397,5.600 136.006 C 5.600 136.622,5.334 137.217,5.000 137.345 C 4.603 137.497,4.400 138.124,4.400 139.200 C 4.400 140.276,4.197 140.903,3.800 141.055 C 3.362 141.223,3.200 141.912,3.200 143.600 C 3.200 145.288,3.038 145.977,2.600 146.145 C 2.131 146.325,2.000 147.126,2.000 149.816 C 2.000 152.341,1.840 153.417,1.400 153.857 C 0.931 154.326,0.800 155.543,0.800 159.429 C 0.800 162.476,0.645 164.400,0.400 164.400 C 0.169 164.400,0.000 165.667,0.000 167.400 C 0.000 169.133,0.169 170.400,0.400 170.400 C 0.641 170.400,0.800 172.067,0.800 174.600 C 0.800 178.067,0.905 178.800,1.400 178.800 C 1.883 178.800,2.000 179.422,2.000 182.000 C 2.000 184.578,2.117 185.200,2.600 185.200 C 3.076 185.200,3.200 185.779,3.200 188.013 C 3.200 190.144,3.345 190.881,3.800 191.055 C 4.204 191.210,4.400 191.845,4.400 193.000 C 4.400 194.155,4.596 194.790,5.000 194.945 C 5.397 195.097,5.600 195.724,5.600 196.800 C 5.600 197.876,5.803 198.503,6.200 198.655 C 6.542 198.787,6.800 199.383,6.800 200.043 C 6.800 200.805,7.005 201.200,7.400 201.200 C 7.832 201.200,8.000 201.642,8.000 202.776 C 8.000 203.643,8.180 204.464,8.401 204.601 C 8.669 204.766,8.669 205.097,8.401 205.598 C 8.180 206.010,7.994 206.854,7.987 207.474 C 7.980 208.093,7.710 208.949,7.387 209.376 C 7.064 209.804,6.800 210.929,6.800 211.876 C 6.800 213.142,6.641 213.600,6.200 213.600 C 5.717 213.600,5.600 214.217,5.600 216.757 C 5.600 219.195,5.463 219.967,5.000 220.145 C 4.522 220.328,4.400 221.185,4.400 224.345 C 4.400 227.504,4.278 228.361,3.800 228.545 C 3.287 228.741,3.200 230.345,3.200 239.587 C 3.200 248.932,3.281 250.400,3.800 250.400 C 4.280 250.400,4.400 251.001,4.400 253.413 C 4.400 255.721,4.540 256.479,5.000 256.655 C 5.431 256.821,5.600 257.496,5.600 259.055 C 5.600 260.615,5.769 261.290,6.200 261.455 C 6.607 261.612,6.800 262.250,6.800 263.443 C 6.800 264.738,6.958 265.200,7.400 265.200 C 7.834 265.200,8.000 265.646,8.000 266.813 C 8.000 267.877,8.204 268.503,8.600 268.655 C 9.004 268.810,9.200 269.445,9.200 270.600 C 9.200 271.755,9.396 272.390,9.800 272.545 C 10.130 272.671,10.400 273.236,10.400 273.800 C 10.400 274.364,10.670 274.929,11.000 275.055 C 11.330 275.182,11.602 275.671,11.605 276.143 C 11.614 277.455,12.054 278.814,12.402 278.599 C 12.572 278.493,12.830 279.035,12.974 279.804 C 13.131 280.639,13.470 281.200,13.818 281.200 C 14.138 281.200,14.400 281.470,14.400 281.800 C 14.400 282.130,14.670 282.400,15.000 282.400 C 15.400 282.400,15.600 282.800,15.600 283.600 C 15.600 284.400,15.800 284.800,16.200 284.800 C 16.530 284.800,16.800 285.070,16.800 285.400 C 16.800 285.730,17.070 286.000,17.400 286.000 C 17.800 286.000,18.000 286.400,18.000 287.200 C 18.000 288.000,18.200 288.400,18.600 288.400 C 18.930 288.400,19.200 288.676,19.200 289.013 C 19.200 289.349,19.470 289.729,19.800 289.855 C 20.130 289.982,20.400 290.336,20.400 290.643 C 20.400 290.949,20.670 291.200,21.000 291.200 C 21.359 291.200,21.600 291.569,21.600 292.119 C 21.600 292.649,22.100 293.453,22.783 294.019 C 23.434 294.558,23.974 295.225,23.983 295.500 C 23.992 295.775,24.270 296.000,24.600 296.000 C 24.930 296.000,25.200 296.270,25.200 296.600 C 25.200 296.930,25.371 297.200,25.580 297.200 C 25.789 297.200,27.044 298.280,28.368 299.600 C 29.692 300.920,30.961 302.000,31.188 302.000 C 31.414 302.000,31.600 302.270,31.600 302.600 C 31.600 302.930,31.870 303.200,32.200 303.200 C 32.530 303.200,32.800 303.403,32.800 303.651 C 32.800 304.072,41.759 313.200,42.173 313.200 C 42.650 313.200,46.400 316.979,46.400 317.460 C 46.400 317.757,46.670 318.000,47.000 318.000 C 47.330 318.000,47.600 318.270,47.600 318.600 C 47.600 318.930,47.931 319.200,48.335 319.200 C 48.743 319.200,51.583 321.687,54.729 324.800 C 57.842 327.880,60.482 330.400,60.595 330.400 C 60.964 330.400,62.400 331.990,62.400 332.400 C 62.400 332.620,62.651 332.800,62.957 332.800 C 63.264 332.800,63.618 333.070,63.745 333.400 C 63.871 333.730,64.345 334.000,64.797 334.000 C 65.302 334.000,65.764 334.378,65.992 334.979 C 66.197 335.518,66.815 336.254,67.367 336.615 C 67.918 336.976,68.478 337.615,68.611 338.036 C 68.745 338.456,69.100 338.800,69.400 338.800 C 69.701 338.800,71.649 340.510,73.728 342.600 C 75.808 344.690,77.710 346.400,77.955 346.400 C 78.200 346.400,78.400 346.670,78.400 347.000 C 78.400 347.330,78.670 347.600,79.000 347.600 C 79.330 347.600,79.600 347.870,79.600 348.200 C 79.600 348.530,79.870 348.800,80.200 348.800 C 80.530 348.800,80.800 349.070,80.800 349.400 C 80.800 349.730,81.070 350.000,81.400 350.000 C 81.730 350.000,82.000 350.249,82.000 350.553 C 82.000 350.858,82.378 351.206,82.840 351.326 C 83.303 351.447,83.562 351.738,83.417 351.973 C 83.272 352.208,83.439 352.400,83.789 352.400 C 84.139 352.400,84.529 352.670,84.655 353.000 C 84.782 353.330,85.107 353.600,85.378 353.600 C 85.648 353.600,87.876 355.580,90.328 358.000 C 92.781 360.420,94.970 362.400,95.193 362.400 C 95.417 362.400,95.600 362.670,95.600 363.000 C 95.600 363.330,95.870 363.600,96.200 363.600 C 96.530 363.600,96.800 363.870,96.800 364.200 C 96.800 364.530,97.070 364.800,97.400 364.800 C 97.730 364.800,98.000 365.070,98.000 365.400 C 98.000 365.730,98.270 366.000,98.600 366.000 C 98.930 366.000,99.200 366.270,99.200 366.600 C 99.200 366.930,99.470 367.200,99.800 367.200 C 100.130 367.200,100.400 367.391,100.400 367.625 C 100.400 368.121,107.158 374.800,107.660 374.800 C 107.847 374.800,108.000 374.962,108.000 375.161 C 108.000 375.359,108.540 375.710,109.200 375.940 C 109.860 376.170,110.400 376.548,110.400 376.779 C 110.400 377.011,110.670 377.200,111.000 377.200 C 111.330 377.200,111.600 377.470,111.600 377.800 C 111.600 378.130,111.870 378.400,112.200 378.400 C 112.530 378.400,112.800 378.670,112.800 379.000 C 112.800 379.330,113.070 379.600,113.400 379.600 C 113.730 379.600,114.000 379.870,114.000 380.200 C 114.000 380.530,114.270 380.800,114.600 380.800 C 114.930 380.800,115.200 381.070,115.200 381.400 C 115.200 381.800,115.600 382.000,116.400 382.000 C 117.200 382.000,117.600 382.200,117.600 382.600 C 117.600 382.930,117.870 383.200,118.200 383.200 C 118.530 383.200,118.800 383.419,118.800 383.687 C 118.800 384.312,120.753 386.000,121.476 386.000 C 121.779 386.000,122.555 386.540,123.200 387.200 C 123.893 387.909,124.788 388.400,125.387 388.400 C 126.021 388.400,126.400 388.625,126.400 389.000 C 126.400 389.400,126.800 389.600,127.600 389.600 C 128.400 389.600,128.800 389.800,128.800 390.200 C 128.800 390.575,129.179 390.800,129.813 390.800 C 130.369 390.800,130.922 391.054,131.041 391.364 C 131.161 391.674,131.695 392.037,132.229 392.172 C 132.763 392.306,133.200 392.592,133.200 392.808 C 133.200 393.023,133.830 393.200,134.600 393.200 C 135.578 393.200,136.000 393.381,136.000 393.800 C 136.000 394.261,136.513 394.400,138.213 394.400 C 139.810 394.400,140.489 394.567,140.655 395.000 C 140.817 395.420,141.472 395.600,142.843 395.600 C 144.316 395.600,144.800 395.748,144.800 396.200 C 144.800 396.642,145.262 396.800,146.557 396.800 C 147.750 396.800,148.388 396.993,148.545 397.400 C 148.721 397.860,149.479 398.000,151.787 398.000 C 154.199 398.000,154.800 398.120,154.800 398.600 C 154.800 399.095,155.533 399.200,159.000 399.200 C 161.533 399.200,163.200 399.359,163.200 399.600 C 163.200 399.839,164.733 400.000,167.000 400.000 C 169.267 400.000,170.800 399.839,170.800 399.600 C 170.800 399.353,172.850 399.200,176.151 399.200 C 180.420 399.200,181.603 399.079,182.000 398.600 C 182.366 398.159,183.339 398.000,185.678 398.000 C 187.971 398.000,189.024 397.833,189.457 397.400 C 189.811 397.046,190.789 396.800,191.841 396.800 C 193.058 396.800,193.698 396.609,193.855 396.200 C 194.017 395.779,194.673 395.600,196.055 395.600 C 197.437 395.600,198.094 395.421,198.255 395.000 C 198.397 394.630,199.005 394.400,199.843 394.400 C 200.783 394.400,201.200 394.215,201.200 393.800 C 201.200 393.328,201.756 393.200,203.800 393.200 C 205.844 393.200,206.400 393.328,206.400 393.800 C 206.400 394.185,206.795 394.405,207.500 394.413 C 208.105 394.420,208.949 394.690,209.376 395.013 C 209.804 395.336,210.639 395.600,211.234 395.600 C 211.828 395.600,212.418 395.870,212.545 396.200 C 212.671 396.530,213.231 396.800,213.787 396.800 C 214.421 396.800,214.800 397.025,214.800 397.400 C 214.800 397.872,215.356 398.000,217.400 398.000 C 219.444 398.000,220.000 398.128,220.000 398.600 C 220.000 399.067,220.533 399.200,222.400 399.200 C 223.733 399.200,224.800 399.378,224.800 399.600 C 224.800 399.860,230.333 400.000,240.600 400.000 C 250.867 400.000,256.400 399.860,256.400 399.600 C 256.400 399.380,257.216 399.200,258.213 399.200 C 259.455 399.200,260.098 399.011,260.255 398.600 C 260.424 398.161,261.116 398.000,262.843 398.000 C 264.671 398.000,265.200 397.865,265.200 397.400 C 265.200 396.956,265.667 396.800,267.000 396.800 C 268.333 396.800,268.800 396.644,268.800 396.200 C 268.800 395.756,269.267 395.600,270.600 395.600 C 271.933 395.600,272.400 395.444,272.400 395.000 C 272.400 394.581,272.822 394.400,273.800 394.400 C 274.778 394.400,275.200 394.219,275.200 393.800 C 275.200 393.284,275.857 393.110,277.414 393.214 C 277.532 393.222,277.905 392.952,278.243 392.614 C 278.581 392.276,279.384 392.000,280.029 392.000 C 280.803 392.000,281.200 391.797,281.200 391.400 C 281.200 391.034,281.573 390.800,282.157 390.800 C 282.684 390.800,283.218 390.530,283.345 390.200 C 283.471 389.870,283.851 389.600,284.187 389.600 C 284.524 389.600,284.800 389.330,284.800 389.000 C 284.800 388.646,285.170 388.397,285.700 388.393 C 286.195 388.389,287.024 387.939,287.543 387.392 C 288.062 386.845,289.367 385.903,290.443 385.299 C 291.519 384.694,292.399 383.975,292.400 383.700 C 292.400 383.425,292.670 383.200,293.000 383.200 C 293.330 383.200,293.600 382.930,293.600 382.600 C 293.600 382.270,293.870 382.000,294.200 382.000 C 294.530 382.000,294.800 381.730,294.800 381.400 C 294.800 381.025,295.179 380.800,295.813 380.800 C 296.369 380.800,296.929 380.530,297.055 380.200 C 297.182 379.870,297.536 379.600,297.843 379.600 C 298.149 379.600,298.400 379.330,298.400 379.000 C 298.400 378.670,298.670 378.400,299.000 378.400 C 299.330 378.400,299.600 378.130,299.600 377.800 C 299.600 377.470,299.870 377.200,300.200 377.200 C 300.530 377.200,300.800 376.930,300.800 376.600 C 300.800 376.270,301.070 376.000,301.400 376.000 C 301.730 376.000,302.000 375.730,302.000 375.400 C 302.000 375.070,302.270 374.800,302.600 374.800 C 302.930 374.800,303.200 374.530,303.200 374.200 C 303.200 373.870,303.425 373.592,303.700 373.582 C 303.975 373.571,304.560 373.108,305.000 372.551 C 305.440 371.994,306.556 370.766,307.479 369.822 C 308.403 368.877,309.277 367.631,309.423 367.052 C 309.568 366.474,309.937 366.000,310.243 366.000 C 310.550 366.000,310.800 365.730,310.800 365.400 C 310.800 365.070,311.070 364.800,311.400 364.800 C 311.730 364.800,312.000 364.530,312.000 364.200 C 312.000 363.870,312.270 363.600,312.600 363.600 C 312.930 363.600,313.200 363.330,313.200 363.000 C 313.200 362.670,313.470 362.400,313.800 362.400 C 314.130 362.400,314.400 362.130,314.400 361.800 C 314.400 361.470,314.670 361.200,315.000 361.200 C 315.330 361.200,315.600 360.930,315.600 360.600 C 315.600 360.270,315.870 360.000,316.200 360.000 C 316.530 360.000,316.800 359.730,316.800 359.400 C 316.800 359.070,317.070 358.800,317.400 358.800 C 317.730 358.800,318.000 358.530,318.000 358.200 C 318.000 357.870,318.270 357.600,318.600 357.600 C 318.930 357.600,319.200 357.330,319.200 357.000 C 319.200 356.670,319.470 356.400,319.800 356.400 C 320.130 356.400,320.400 356.265,320.400 356.100 C 320.400 355.935,322.024 354.105,324.009 352.034 C 325.994 349.963,327.723 347.848,327.852 347.334 C 327.981 346.820,328.337 346.400,328.643 346.400 C 328.950 346.400,329.200 346.130,329.200 345.800 C 329.200 345.470,329.470 345.200,329.800 345.200 C 330.130 345.200,330.400 344.930,330.400 344.600 C 330.400 344.270,330.670 344.000,331.000 344.000 C 331.330 344.000,331.600 343.730,331.600 343.400 C 331.600 343.070,331.870 342.800,332.200 342.800 C 332.530 342.800,332.800 342.530,332.800 342.200 C 332.800 341.870,333.070 341.600,333.400 341.600 C 333.730 341.600,334.000 341.330,334.000 341.000 C 334.000 340.670,334.270 340.400,334.600 340.400 C 334.930 340.400,335.213 340.175,335.229 339.900 C 335.245 339.625,336.132 338.680,337.200 337.800 C 338.268 336.920,339.155 335.975,339.171 335.700 C 339.187 335.425,339.470 335.200,339.800 335.200 C 340.130 335.200,340.400 334.930,340.400 334.600 C 340.400 334.270,340.670 334.000,341.000 334.000 C 341.330 334.000,341.600 333.730,341.600 333.400 C 341.600 333.070,341.870 332.800,342.200 332.800 C 342.530 332.800,342.800 332.617,342.800 332.393 C 342.800 332.170,343.610 331.210,344.600 330.262 C 345.590 329.313,346.401 328.371,346.401 328.169 C 346.402 327.966,346.929 327.447,347.573 327.016 C 348.217 326.584,348.735 326.134,348.725 326.016 C 348.636 325.024,348.897 324.400,349.400 324.400 C 349.730 324.400,350.000 324.232,350.000 324.026 C 350.000 323.563,354.395 319.200,354.862 319.200 C 355.048 319.200,355.200 319.026,355.200 318.813 C 355.200 318.310,357.910 315.600,358.413 315.600 C 358.626 315.600,358.800 315.330,358.800 315.000 C 358.800 314.670,359.070 314.400,359.400 314.400 C 359.730 314.400,360.000 314.130,360.000 313.800 C 360.000 313.470,360.250 313.200,360.557 313.200 C 360.863 313.200,361.226 312.750,361.364 312.200 C 361.502 311.650,361.773 311.200,361.966 311.200 C 362.546 311.200,364.800 309.061,364.800 308.511 C 364.800 308.230,364.977 308.000,365.192 308.000 C 365.408 308.000,365.698 307.550,365.836 307.000 C 365.974 306.450,366.337 306.000,366.643 306.000 C 366.950 306.000,367.200 305.730,367.200 305.400 C 367.200 305.070,367.400 304.800,367.644 304.800 C 368.258 304.800,369.985 303.110,369.993 302.500 C 369.997 302.225,370.270 302.000,370.600 302.000 C 370.930 302.000,371.200 301.730,371.200 301.400 C 371.200 301.070,371.470 300.800,371.800 300.800 C 372.130 300.800,372.400 300.620,372.400 300.400 C 372.400 299.881,373.881 298.400,374.400 298.400 C 374.620 298.400,374.800 298.130,374.800 297.800 C 374.800 297.470,375.070 297.200,375.400 297.200 C 375.730 297.200,376.000 297.025,376.000 296.811 C 376.000 296.596,376.810 295.611,377.800 294.621 C 378.790 293.631,379.600 292.656,379.600 292.453 C 379.600 292.251,379.870 291.982,380.200 291.855 C 380.530 291.729,380.808 291.304,380.817 290.913 C 380.826 290.521,381.366 289.758,382.017 289.219 C 382.668 288.679,383.200 288.025,383.200 287.765 C 383.200 287.506,383.560 287.199,384.000 287.084 C 384.451 286.966,384.800 286.538,384.800 286.104 C 384.800 285.680,385.335 284.808,385.989 284.167 C 386.643 283.525,387.183 282.595,387.189 282.100 C 387.195 281.572,387.448 281.200,387.800 281.200 C 388.130 281.200,388.400 280.949,388.400 280.643 C 388.400 280.336,388.670 279.982,389.000 279.855 C 389.330 279.729,389.600 279.189,389.600 278.655 C 389.600 278.122,389.870 277.582,390.200 277.455 C 390.530 277.329,390.800 276.789,390.800 276.255 C 390.800 275.722,391.070 275.182,391.400 275.055 C 391.730 274.929,392.000 274.571,392.000 274.262 C 392.000 273.952,392.270 273.474,392.600 273.200 C 392.930 272.926,393.200 272.386,393.200 272.000 C 393.200 271.614,393.470 271.074,393.800 270.800 C 394.130 270.526,394.400 269.694,394.400 268.951 C 394.400 268.017,394.585 267.600,395.000 267.600 C 395.444 267.600,395.600 267.133,395.600 265.800 C 395.600 264.467,395.756 264.000,396.200 264.000 C 396.642 264.000,396.800 263.538,396.800 262.243 C 396.800 261.050,396.993 260.412,397.400 260.255 C 397.860 260.079,398.000 259.321,398.000 257.013 C 398.000 254.601,398.120 254.000,398.600 254.000 C 399.080 254.000,399.200 253.400,399.200 251.000 C 399.200 249.267,399.369 248.000,399.600 248.000 C 399.858 248.000,400.000 243.467,400.000 235.200 C 400.000 226.933,399.858 222.400,399.600 222.400 C 399.374 222.400,399.200 221.267,399.200 219.800 C 399.200 217.756,399.072 217.200,398.600 217.200 C 398.139 217.200,397.988 216.644,397.950 214.800 C 397.883 211.590,397.841 211.384,397.282 211.500 C 396.958 211.567,396.800 210.959,396.800 209.649 C 396.800 208.403,396.583 207.518,396.200 207.200 C 395.870 206.926,395.600 206.088,395.600 205.338 C 395.600 204.495,395.371 203.887,395.000 203.745 C 394.593 203.588,394.400 202.950,394.400 201.757 C 394.400 200.462,394.242 200.000,393.800 200.000 C 393.425 200.000,393.200 199.621,393.200 198.987 C 393.200 198.431,392.930 197.871,392.600 197.745 C 392.137 197.567,392.000 196.795,392.000 194.357 C 392.000 191.817,392.117 191.200,392.600 191.200 C 393.000 191.200,393.200 190.800,393.200 190.000 C 393.200 189.200,393.400 188.800,393.800 188.800 C 394.267 188.800,394.400 188.263,394.400 186.371 C 394.400 184.746,394.598 183.744,395.000 183.343 C 395.371 182.972,395.600 181.990,395.600 180.771 C 395.600 179.286,395.748 178.800,396.200 178.800 C 396.706 178.800,396.800 177.871,396.800 172.843 C 396.800 167.916,396.904 166.846,397.400 166.655 C 397.895 166.465,398.000 165.409,398.000 160.600 C 398.000 155.791,397.895 154.735,397.400 154.545 C 396.918 154.360,396.800 153.467,396.800 150.006 C 396.800 146.665,396.665 145.586,396.200 145.200 C 395.838 144.900,395.600 144.024,395.600 142.994 C 395.600 141.844,395.404 141.210,395.000 141.055 C 394.566 140.889,394.400 140.209,394.400 138.600 C 394.400 136.991,394.234 136.311,393.800 136.145 C 393.463 136.015,393.200 135.420,393.200 134.786 C 393.200 134.165,392.930 133.387,392.600 133.057 C 392.262 132.719,392.000 131.741,392.000 130.816 C 392.000 129.726,391.798 129.098,391.400 128.945 C 391.058 128.813,390.800 128.217,390.800 127.557 C 390.800 126.795,390.595 126.400,390.200 126.400 C 389.783 126.400,389.600 125.981,389.600 125.029 C 389.600 124.274,389.330 123.387,389.000 123.057 C 388.670 122.727,388.400 122.106,388.400 121.678 C 388.400 121.249,388.130 120.674,387.800 120.400 C 387.470 120.126,387.200 119.604,387.200 119.240 C 387.200 118.876,386.661 117.988,386.002 117.267 C 385.343 116.545,384.694 115.515,384.559 114.977 C 384.424 114.440,384.063 114.000,383.757 114.000 C 383.450 114.000,383.200 113.730,383.200 113.400 C 383.200 113.070,382.930 112.800,382.600 112.800 C 382.200 112.800,382.000 112.400,382.000 111.600 C 382.000 110.800,381.800 110.400,381.400 110.400 C 381.070 110.400,380.800 110.167,380.800 109.881 C 380.800 109.596,380.268 108.921,379.617 108.381 C 378.966 107.842,378.426 107.032,378.417 106.581 C 378.408 106.131,377.868 105.321,377.217 104.781 C 376.566 104.242,376.026 103.575,376.017 103.300 C 376.008 103.025,375.730 102.800,375.400 102.800 C 375.070 102.800,374.800 102.530,374.800 102.200 C 374.800 101.870,374.530 101.600,374.200 101.600 C 373.870 101.600,373.600 101.330,373.600 101.000 C 373.600 100.670,373.330 100.400,373.000 100.400 C 372.670 100.400,372.400 100.130,372.400 99.800 C 372.400 99.470,372.130 99.200,371.800 99.200 C 371.470 99.200,371.200 98.930,371.200 98.600 C 371.200 98.270,370.930 98.000,370.600 98.000 C 370.270 98.000,370.000 97.742,370.000 97.427 C 370.000 97.112,369.157 96.167,368.127 95.327 C 365.618 93.281,362.400 90.053,362.400 89.581 C 362.400 89.371,362.223 89.200,362.006 89.200 C 361.790 89.200,360.006 87.580,358.043 85.600 C 356.080 83.620,354.277 82.000,354.037 82.000 C 353.797 82.000,353.600 81.730,353.600 81.400 C 353.600 81.070,353.330 80.800,353.000 80.800 C 352.670 80.800,352.400 80.530,352.400 80.200 C 352.400 79.870,352.196 79.600,351.947 79.600 C 351.698 79.600,350.894 79.015,350.161 78.300 C 348.114 76.304,347.237 75.600,346.800 75.600 C 346.580 75.600,346.400 75.330,346.400 75.000 C 346.400 74.670,346.130 74.400,345.800 74.400 C 345.470 74.400,345.200 74.130,345.200 73.800 C 345.200 73.470,344.930 73.200,344.600 73.200 C 344.270 73.200,344.000 72.930,344.000 72.600 C 344.000 72.270,343.730 72.000,343.400 72.000 C 343.070 72.000,342.800 71.730,342.800 71.400 C 342.800 71.070,342.530 70.800,342.200 70.800 C 341.870 70.800,341.600 70.530,341.600 70.200 C 341.600 69.870,341.330 69.600,341.000 69.600 C 340.670 69.600,340.400 69.330,340.400 69.000 C 340.400 68.670,340.130 68.400,339.800 68.400 C 339.470 68.400,339.200 68.130,339.200 67.800 C 339.200 67.470,338.957 67.200,338.660 67.200 C 338.363 67.200,337.706 66.660,337.200 66.000 C 336.694 65.340,336.037 64.800,335.740 64.800 C 335.443 64.800,335.200 64.530,335.200 64.200 C 335.200 63.870,334.930 63.600,334.600 63.600 C 334.270 63.600,334.000 63.330,334.000 63.000 C 334.000 62.670,333.730 62.400,333.400 62.400 C 333.070 62.400,332.800 62.151,332.800 61.847 C 332.800 61.542,332.422 61.194,331.960 61.074 C 331.497 60.953,331.238 60.662,331.383 60.427 C 331.528 60.192,331.367 60.000,331.024 60.000 C 330.681 60.000,330.400 59.820,330.400 59.600 C 330.400 58.880,326.893 56.000,326.016 56.000 C 325.787 56.000,325.600 55.730,325.600 55.400 C 325.600 55.070,325.420 54.800,325.200 54.800 C 324.681 54.800,323.200 53.319,323.200 52.800 C 323.200 52.580,322.975 52.392,322.700 52.383 C 322.425 52.374,321.758 51.834,321.219 51.183 C 320.679 50.532,320.004 50.000,319.719 50.000 C 319.433 50.000,319.200 49.730,319.200 49.400 C 319.200 49.070,318.930 48.800,318.600 48.800 C 318.270 48.800,318.000 48.530,318.000 48.200 C 318.000 47.870,317.730 47.600,317.400 47.600 C 317.070 47.600,316.800 47.419,316.800 47.198 C 316.800 46.637,310.212 40.000,309.655 40.000 C 309.405 40.000,309.245 39.859,309.300 39.686 C 309.435 39.261,306.631 36.400,306.079 36.400 C 305.838 36.400,305.496 36.175,305.320 35.900 C 304.945 35.315,303.696 34.476,302.700 34.142 C 302.315 34.012,302.000 33.658,302.000 33.353 C 302.000 33.049,301.730 32.800,301.400 32.800 C 301.070 32.800,300.800 32.530,300.800 32.200 C 300.800 31.870,300.530 31.600,300.200 31.600 C 299.870 31.600,299.600 31.409,299.600 31.176 C 299.600 30.623,288.177 19.200,287.624 19.200 C 287.391 19.200,287.200 18.930,287.200 18.600 C 287.200 18.200,286.800 18.000,286.000 18.000 C 285.200 18.000,284.800 17.800,284.800 17.400 C 284.800 17.070,284.530 16.800,284.200 16.800 C 283.870 16.800,283.600 16.530,283.600 16.200 C 283.600 15.870,283.253 15.600,282.828 15.600 C 282.404 15.600,281.389 14.970,280.573 14.200 C 279.756 13.430,278.773 12.800,278.387 12.800 C 278.001 12.800,277.582 12.530,277.455 12.200 C 277.329 11.870,276.769 11.600,276.213 11.600 C 275.656 11.600,275.200 11.414,275.200 11.187 C 275.200 10.961,274.885 10.656,274.500 10.510 C 274.115 10.364,273.562 10.010,273.271 9.722 C 272.981 9.435,272.396 9.200,271.971 9.200 C 271.547 9.200,271.200 8.930,271.200 8.600 C 271.200 8.205,270.805 8.000,270.043 8.000 C 269.383 8.000,268.787 7.742,268.655 7.400 C 268.529 7.070,267.957 6.800,267.384 6.800 C 266.811 6.800,266.073 6.530,265.743 6.200 C 265.413 5.870,264.638 5.600,264.020 5.600 C 263.403 5.600,262.674 5.330,262.400 5.000 C 262.126 4.670,261.493 4.400,260.994 4.400 C 260.494 4.400,259.982 4.130,259.855 3.800 C 259.689 3.367,259.010 3.200,257.413 3.200 C 255.713 3.200,255.200 3.061,255.200 2.600 C 255.200 2.135,254.671 2.000,252.843 2.000 C 251.116 2.000,250.424 1.839,250.255 1.400 C 250.089 0.967,249.410 0.800,247.813 0.800 C 246.596 0.800,245.600 0.620,245.600 0.400 C 245.600 0.141,240.867 0.000,232.200 0.000 C 223.533 0.000,218.800 0.141,218.800 0.400 M245.226 13.235 C 252.113 14.769,253.376 15.104,256.400 16.202 C 267.301 20.159,276.766 26.081,285.803 34.600 C 286.269 35.040,288.260 36.935,290.226 38.812 C 292.192 40.688,297.040 45.265,301.000 48.982 C 304.960 52.700,310.008 57.464,312.217 59.571 C 319.243 66.268,330.090 76.540,333.391 79.621 C 335.146 81.260,338.476 84.407,340.791 86.616 C 347.617 93.129,351.201 96.511,354.600 99.644 C 363.965 108.277,369.005 113.998,373.189 120.743 C 375.724 124.830,379.200 131.571,379.200 132.400 C 379.200 132.752,379.352 133.211,379.538 133.420 C 379.941 133.873,381.276 137.656,382.214 141.000 C 382.585 142.320,383.127 144.210,383.419 145.200 C 385.930 153.713,385.639 173.524,382.908 179.952 L 382.164 181.705 380.782 180.163 C 373.329 171.847,368.503 167.714,359.400 161.850 C 356.651 160.080,356.161 159.593,355.925 158.395 C 352.326 140.110,349.226 134.877,333.185 120.008 C 330.223 117.263,326.180 113.478,324.200 111.597 C 315.781 103.599,313.217 101.170,310.028 98.171 C 308.173 96.427,306.092 94.460,305.403 93.800 C 304.714 93.140,301.832 90.440,298.998 87.800 C 292.512 81.756,292.182 81.443,287.154 76.587 C 284.869 74.380,279.940 69.701,276.200 66.189 C 272.460 62.678,267.903 58.364,266.074 56.602 C 264.245 54.841,262.400 53.237,261.974 53.039 C 261.548 52.840,261.200 52.531,261.200 52.351 C 261.200 51.845,255.421 48.066,252.247 46.497 C 245.219 43.022,238.500 41.479,230.200 41.435 C 223.452 41.398,223.862 41.329,215.800 43.876 C 204.261 47.523,194.079 57.855,190.449 69.600 C 188.131 77.100,188.200 76.641,188.200 84.600 C 188.200 91.744,188.267 92.432,189.322 96.059 C 190.596 100.440,190.507 100.989,187.918 104.715 C 184.879 109.089,171.061 124.001,170.049 123.999 C 169.454 123.997,166.072 118.658,165.363 116.600 C 165.211 116.160,164.602 114.720,164.008 113.400 C 162.719 110.533,161.137 105.211,159.647 98.723 C 157.751 90.474,158.349 73.209,160.801 65.400 C 161.008 64.740,161.469 63.210,161.824 62.000 C 163.602 55.948,165.357 52.667,171.881 43.200 C 179.192 32.592,190.854 22.446,200.400 18.387 C 202.050 17.686,203.760 16.952,204.200 16.756 C 214.266 12.269,233.485 10.620,245.226 13.235 M174.400 14.444 C 181.248 15.655,181.304 15.817,176.311 20.000 C 172.802 22.939,168.766 27.281,164.173 33.057 C 163.498 33.906,161.698 36.436,160.173 38.679 C 157.443 42.697,156.856 43.184,154.725 43.195 C 151.764 43.210,145.055 45.382,140.200 47.897 C 135.094 50.543,130.159 54.912,120.184 65.617 C 118.433 67.496,114.600 71.590,111.666 74.713 C 108.732 77.836,104.772 82.087,102.866 84.159 C 99.455 87.866,93.719 93.972,81.786 106.600 C 78.459 110.120,71.527 117.500,66.380 123.000 C 61.234 128.500,56.180 133.900,55.148 135.000 C 38.550 152.704,37.695 175.968,52.905 196.080 C 56.288 200.553,64.433 206.974,68.048 208.016 C 78.033 210.895,89.096 211.566,96.606 209.748 L 101.012 208.681 104.206 210.387 C 109.252 213.083,110.464 214.093,121.100 224.469 C 123.355 226.669,125.197 228.588,125.194 228.734 C 125.146 230.833,111.868 236.476,101.000 239.017 C 86.980 242.295,62.192 238.687,52.805 232.004 C 52.168 231.550,50.971 230.896,50.146 230.551 C 43.587 227.811,31.168 216.308,24.935 207.200 C 20.514 200.741,16.505 191.551,14.763 183.886 C 11.954 171.521,11.781 161.443,14.208 151.600 C 14.506 150.390,15.040 148.140,15.393 146.600 C 16.150 143.303,19.241 135.444,20.862 132.695 C 21.488 131.633,22.000 130.656,22.000 130.522 C 22.000 129.795,28.681 120.086,30.371 118.357 C 30.717 118.003,32.620 115.935,34.600 113.762 C 38.790 109.162,43.667 103.974,45.444 102.224 C 46.128 101.551,52.329 94.970,59.224 87.600 C 66.118 80.230,72.949 72.940,74.403 71.400 C 75.857 69.860,78.655 66.890,80.620 64.800 C 82.585 62.710,84.285 60.909,84.397 60.797 C 84.509 60.686,85.770 59.334,87.200 57.794 C 106.659 36.835,113.727 29.888,119.624 25.927 C 123.973 23.006,132.804 18.400,134.055 18.400 C 134.377 18.400,134.811 18.243,135.020 18.050 C 136.382 16.796,148.955 13.894,155.000 13.438 C 159.392 13.107,169.927 13.654,174.400 14.444 M227.969 55.700 C 235.387 72.004,236.994 89.468,232.562 105.600 C 231.987 107.690,231.428 109.760,231.319 110.200 C 231.089 111.125,230.135 113.482,229.581 114.495 C 229.371 114.877,229.200 115.385,229.200 115.624 C 229.200 116.385,225.217 124.018,223.090 127.333 C 219.802 132.459,213.638 139.441,197.600 156.207 C 195.070 158.852,190.840 163.350,188.200 166.202 C 183.906 170.841,177.975 177.163,175.800 179.420 C 175.360 179.877,172.930 182.461,170.400 185.162 C 164.127 191.859,164.782 191.683,160.700 187.776 C 153.478 180.866,149.075 176.745,146.483 174.469 C 142.482 170.955,141.698 172.512,153.969 159.602 C 161.941 151.215,166.338 146.534,169.765 142.786 C 172.212 140.110,181.620 130.126,187.646 123.811 C 195.500 115.580,198.054 112.291,200.792 106.880 C 205.244 98.082,206.587 88.115,204.576 78.800 C 202.823 70.681,202.828 70.513,204.901 67.327 C 208.788 61.354,212.484 58.405,219.597 55.601 C 225.035 53.458,226.959 53.480,227.969 55.700 M244.255 56.600 C 244.384 56.935,244.978 57.200,245.600 57.200 C 246.222 57.200,246.816 57.465,246.945 57.800 C 247.071 58.130,247.631 58.400,248.187 58.400 C 248.821 58.400,249.200 58.625,249.200 59.000 C 249.200 59.330,249.541 59.600,249.957 59.600 C 250.374 59.600,250.818 59.870,250.945 60.200 C 251.071 60.530,251.457 60.800,251.801 60.800 C 252.145 60.800,252.955 61.340,253.600 62.000 C 254.245 62.660,254.959 63.200,255.187 63.200 C 255.414 63.200,255.600 63.384,255.600 63.608 C 255.600 64.067,264.537 73.200,264.986 73.200 C 265.478 73.200,267.185 74.682,266.956 74.910 C 266.837 75.029,267.139 75.254,267.628 75.409 C 268.116 75.564,269.023 76.210,269.644 76.845 C 270.265 77.480,270.959 78.000,271.187 78.000 C 271.414 78.000,271.600 78.270,271.600 78.600 C 271.600 78.930,271.870 79.200,272.200 79.200 C 272.530 79.200,272.800 79.387,272.800 79.615 C 272.800 80.177,281.795 89.200,282.355 89.200 C 282.600 89.200,282.800 89.470,282.800 89.800 C 282.800 90.130,283.070 90.400,283.400 90.400 C 283.730 90.400,284.000 90.681,284.000 91.024 C 284.000 91.367,284.192 91.528,284.427 91.383 C 284.662 91.238,284.952 91.496,285.072 91.955 C 285.193 92.415,285.426 92.707,285.592 92.605 C 285.758 92.503,286.215 92.775,286.609 93.209 C 287.002 93.644,287.656 94.000,288.062 94.000 C 288.468 94.000,288.800 94.270,288.800 94.600 C 288.800 94.930,289.070 95.200,289.400 95.200 C 289.758 95.200,290.000 95.568,290.000 96.111 C 290.000 97.079,292.088 99.200,293.041 99.200 C 293.349 99.200,293.600 99.470,293.600 99.800 C 293.600 100.130,293.776 100.400,293.992 100.400 C 294.208 100.400,295.713 101.750,297.336 103.400 C 298.959 105.050,300.493 106.400,300.744 106.400 C 300.995 106.400,301.200 106.670,301.200 107.000 C 301.200 107.330,301.470 107.600,301.800 107.600 C 302.130 107.600,302.400 107.870,302.400 108.200 C 302.400 108.530,302.642 108.800,302.939 108.800 C 303.632 108.800,305.262 110.205,304.941 110.526 C 304.807 110.660,305.164 110.983,305.736 111.244 C 306.307 111.504,306.683 111.865,306.571 112.047 C 306.459 112.228,306.825 112.491,307.384 112.632 C 307.943 112.772,308.400 113.137,308.400 113.443 C 308.400 113.750,308.541 114.000,308.713 114.000 C 309.189 114.000,313.200 117.925,313.200 118.391 C 313.200 118.616,313.371 118.800,313.580 118.800 C 313.789 118.800,315.044 119.880,316.368 121.200 C 317.692 122.520,318.961 123.600,319.188 123.600 C 319.414 123.600,319.600 123.870,319.600 124.200 C 319.600 124.530,319.870 124.800,320.200 124.800 C 320.530 124.800,320.800 125.070,320.800 125.400 C 320.800 125.730,321.070 126.000,321.400 126.000 C 321.730 126.000,322.000 126.270,322.000 126.600 C 322.000 126.930,322.270 127.200,322.600 127.200 C 322.930 127.200,323.200 127.470,323.200 127.800 C 323.200 128.130,323.470 128.400,323.800 128.400 C 324.130 128.400,324.400 128.670,324.400 129.000 C 324.400 129.330,324.579 129.600,324.799 129.600 C 325.018 129.600,326.065 130.500,327.125 131.600 C 328.185 132.700,329.272 133.600,329.539 133.600 C 329.806 133.600,330.129 133.870,330.255 134.200 C 330.382 134.530,330.691 134.808,330.943 134.817 C 331.426 134.835,333.200 137.377,333.200 138.051 C 333.200 138.269,333.392 138.328,333.627 138.183 C 333.862 138.038,334.153 138.297,334.274 138.760 C 334.394 139.222,334.742 139.600,335.047 139.600 C 335.351 139.600,335.600 139.870,335.600 140.200 C 335.600 140.530,335.870 140.800,336.200 140.800 C 336.530 140.800,336.800 141.005,336.800 141.256 C 336.800 141.507,337.115 141.970,337.500 142.286 C 337.885 142.601,337.962 142.737,337.670 142.588 C 336.981 142.234,337.940 144.033,338.700 144.520 C 338.975 144.696,339.200 145.286,339.200 145.832 C 339.200 146.378,339.470 146.929,339.800 147.055 C 340.164 147.195,340.400 147.800,340.400 148.594 C 340.400 149.313,340.670 150.126,341.000 150.400 C 341.820 151.080,341.798 153.200,340.971 153.200 C 340.626 153.200,340.073 152.930,339.743 152.600 C 339.375 152.233,338.395 152.000,337.214 152.000 C 335.869 152.000,335.216 151.819,335.055 151.400 C 334.878 150.937,334.105 150.800,331.662 150.800 C 329.337 150.800,328.366 150.641,328.000 150.200 C 327.576 149.689,325.553 149.600,314.351 149.600 C 302.928 149.600,301.200 149.679,301.200 150.200 C 301.200 150.680,300.599 150.800,298.187 150.800 C 295.879 150.800,295.121 150.940,294.945 151.400 C 294.784 151.819,294.131 152.000,292.786 152.000 C 291.605 152.000,290.625 152.233,290.257 152.600 C 289.924 152.933,288.946 153.200,288.061 153.200 C 286.183 153.200,285.116 153.541,285.426 154.042 C 285.548 154.239,285.001 154.400,284.211 154.400 C 283.303 154.400,282.690 154.621,282.545 155.000 C 282.418 155.330,281.924 155.600,281.446 155.600 C 280.969 155.600,280.223 155.843,279.789 156.140 C 279.355 156.437,278.483 156.806,277.852 156.960 C 277.220 157.114,276.442 157.501,276.123 157.820 C 275.804 158.139,275.196 158.400,274.771 158.400 C 274.347 158.400,274.000 158.670,274.000 159.000 C 274.000 159.330,273.730 159.600,273.400 159.600 C 273.070 159.600,272.800 159.870,272.800 160.200 C 272.800 160.600,272.400 160.800,271.600 160.800 C 270.800 160.800,270.400 161.000,270.400 161.400 C 270.400 161.730,270.124 162.000,269.787 162.000 C 269.451 162.000,269.071 162.270,268.945 162.600 C 268.813 162.942,268.217 163.200,267.557 163.200 C 266.795 163.200,266.400 162.995,266.400 162.600 C 266.400 162.270,266.130 162.000,265.800 162.000 C 265.470 162.000,265.200 161.730,265.200 161.400 C 265.200 161.070,264.930 160.800,264.600 160.800 C 264.270 160.800,264.000 160.530,264.000 160.200 C 264.000 159.870,263.730 159.600,263.400 159.600 C 263.070 159.600,262.800 159.431,262.800 159.225 C 262.800 158.720,257.300 153.200,256.797 153.200 C 256.579 153.200,256.400 152.930,256.400 152.600 C 256.400 152.270,256.239 152.000,256.042 152.000 C 255.845 152.000,254.826 151.190,253.778 150.200 C 252.730 149.210,251.711 148.400,251.513 148.400 C 251.315 148.400,251.246 148.249,251.361 148.064 C 251.623 147.640,249.442 146.000,248.616 146.000 C 248.277 146.000,248.000 145.730,248.000 145.400 C 248.000 145.070,247.730 144.800,247.400 144.800 C 247.070 144.800,246.800 144.530,246.800 144.200 C 246.800 143.870,246.530 143.600,246.200 143.600 C 245.870 143.600,245.600 143.330,245.600 143.000 C 245.600 142.670,245.330 142.400,245.000 142.400 C 244.670 142.400,244.400 142.204,244.400 141.965 C 244.400 141.411,240.174 137.200,239.617 137.200 C 239.388 137.200,239.200 136.930,239.200 136.600 C 239.200 136.270,238.930 136.000,238.600 136.000 C 238.270 136.000,238.000 135.730,238.000 135.400 C 238.000 135.070,237.730 134.800,237.400 134.800 C 237.070 134.800,236.800 134.530,236.800 134.200 C 236.800 133.870,236.530 133.600,236.200 133.600 C 235.758 133.600,235.600 133.138,235.600 131.843 C 235.600 130.650,235.793 130.012,236.200 129.855 C 236.530 129.729,236.800 129.259,236.800 128.813 C 236.800 128.366,237.025 128.045,237.300 128.100 C 237.623 128.165,237.844 127.598,237.923 126.500 C 238.007 125.343,238.230 124.800,238.623 124.800 C 238.992 124.800,239.200 124.385,239.200 123.647 C 239.200 122.830,239.433 122.432,240.000 122.284 C 240.532 122.145,240.800 121.738,240.800 121.071 C 240.800 120.519,241.003 119.999,241.251 119.916 C 241.499 119.834,241.791 118.832,241.901 117.690 C 242.011 116.549,242.348 115.409,242.650 115.158 C 242.953 114.907,243.200 114.203,243.200 113.594 C 243.200 112.978,243.466 112.383,243.800 112.255 C 244.225 112.092,244.400 111.429,244.400 109.984 C 244.400 108.703,244.623 107.719,245.000 107.343 C 245.407 106.936,245.600 105.929,245.600 104.214 C 245.600 102.336,245.754 101.626,246.200 101.455 C 246.659 101.279,246.800 100.526,246.800 98.255 C 246.800 95.985,246.941 95.231,247.400 95.055 C 248.168 94.761,248.165 93.823,247.391 92.642 C 246.846 91.810,246.846 91.660,247.391 91.207 C 248.231 90.510,248.247 84.880,247.413 83.776 C 246.980 83.204,246.822 81.826,246.813 78.533 C 246.800 73.950,246.593 72.634,245.948 73.032 C 245.746 73.157,245.606 73.111,245.637 72.930 C 245.924 71.280,245.505 67.163,245.000 66.657 C 244.601 66.258,244.400 65.259,244.400 63.671 C 244.400 61.920,244.241 61.224,243.800 61.055 C 243.470 60.929,243.200 60.389,243.200 59.855 C 243.200 59.322,242.930 58.782,242.600 58.655 C 241.486 58.228,241.832 56.000,243.013 56.000 C 243.569 56.000,244.129 56.270,244.255 56.600 M149.025 61.290 C 148.580 61.539,148.400 62.255,148.400 63.771 C 148.400 65.177,148.196 66.071,147.800 66.400 C 147.368 66.759,147.200 67.708,147.200 69.800 C 147.200 71.892,147.032 72.841,146.600 73.200 C 146.094 73.620,146.000 75.380,146.000 84.449 C 146.000 93.739,146.082 95.200,146.600 95.200 C 147.089 95.200,147.200 95.868,147.200 98.813 C 147.200 101.655,147.328 102.474,147.800 102.655 C 148.223 102.818,148.400 103.478,148.400 104.899 C 148.400 106.194,148.608 107.070,148.984 107.356 C 149.355 107.638,149.598 108.637,149.652 110.100 C 149.711 111.704,149.898 112.400,150.268 112.400 C 150.588 112.400,150.800 112.861,150.800 113.557 C 150.800 114.217,151.058 114.813,151.400 114.945 C 151.797 115.097,152.000 115.724,152.000 116.800 C 152.000 117.876,152.203 118.503,152.600 118.655 C 152.992 118.806,153.200 119.429,153.200 120.455 C 153.200 121.482,153.408 122.105,153.800 122.255 C 154.130 122.382,154.400 122.897,154.400 123.400 C 154.400 123.903,154.670 124.418,155.000 124.545 C 155.330 124.671,155.600 125.113,155.600 125.525 C 155.600 125.938,156.066 126.799,156.637 127.438 C 157.207 128.077,157.929 129.185,158.242 129.900 C 158.555 130.615,158.988 131.200,159.205 131.200 C 159.422 131.200,159.600 131.656,159.600 132.213 C 159.600 132.769,159.870 133.329,160.200 133.455 C 160.530 133.582,160.800 133.936,160.800 134.243 C 160.800 134.549,160.530 134.800,160.200 134.800 C 159.870 134.800,159.600 135.070,159.600 135.400 C 159.600 135.730,159.415 136.000,159.189 136.000 C 158.764 136.000,156.332 138.370,154.134 140.927 C 153.438 141.737,152.673 142.400,152.434 142.400 C 152.195 142.400,152.000 142.670,152.000 143.000 C 152.000 143.330,151.730 143.600,151.400 143.600 C 151.070 143.600,150.800 143.771,150.800 143.979 C 150.800 144.188,150.346 144.849,149.790 145.448 C 149.235 146.047,148.676 146.957,148.547 147.469 C 148.418 147.981,148.063 148.400,147.757 148.400 C 147.450 148.400,147.200 148.670,147.200 149.000 C 147.200 149.330,146.930 149.600,146.600 149.600 C 146.270 149.600,146.000 149.870,146.000 150.200 C 146.000 150.530,145.730 150.800,145.400 150.800 C 145.070 150.800,144.800 151.070,144.800 151.400 C 144.800 151.730,144.530 152.000,144.200 152.000 C 143.870 152.000,143.600 152.270,143.600 152.600 C 143.600 152.930,143.330 153.200,143.000 153.200 C 142.670 153.200,142.400 153.470,142.400 153.800 C 142.400 154.130,142.216 154.400,141.991 154.400 C 141.459 154.400,137.200 158.659,137.200 159.191 C 137.200 159.416,136.930 159.600,136.600 159.600 C 136.270 159.600,136.000 159.870,136.000 160.200 C 136.000 160.530,135.730 160.800,135.400 160.800 C 135.070 160.800,134.800 161.070,134.800 161.400 C 134.800 161.730,134.530 162.000,134.200 162.000 C 133.870 162.000,133.600 162.270,133.600 162.600 C 133.600 163.361,130.199 163.448,129.720 162.700 C 129.233 161.940,127.434 160.981,127.788 161.670 C 127.937 161.962,127.801 161.885,127.486 161.500 C 127.170 161.115,126.639 160.800,126.305 160.800 C 125.971 160.800,125.474 160.530,125.200 160.200 C 124.926 159.870,124.184 159.600,123.551 159.600 C 122.816 159.600,122.400 159.392,122.400 159.025 C 122.400 158.650,121.777 158.356,120.613 158.181 C 119.630 158.034,118.618 157.663,118.364 157.357 C 118.110 157.050,117.219 156.800,116.384 156.800 C 115.550 156.800,114.799 156.597,114.716 156.349 C 114.634 156.101,113.584 155.807,112.383 155.694 C 111.182 155.582,109.845 155.244,109.411 154.945 C 108.977 154.645,107.897 154.394,107.011 154.387 C 106.125 154.380,105.051 154.110,104.624 153.787 C 104.035 153.342,102.613 153.200,98.757 153.200 C 95.040 153.200,93.622 153.065,93.500 152.700 C 93.225 151.873,85.503 151.753,84.829 152.565 C 84.409 153.071,83.441 153.201,80.051 153.205 C 75.574 153.211,73.865 153.458,74.228 154.045 C 74.349 154.241,72.906 154.400,71.011 154.400 C 68.326 154.400,67.525 154.531,67.345 155.000 C 67.194 155.392,66.571 155.600,65.545 155.600 C 64.518 155.600,63.895 155.808,63.745 156.200 C 63.604 156.567,62.998 156.800,62.186 156.800 C 61.455 156.800,60.619 157.032,60.329 157.316 C 59.158 158.460,56.000 158.793,56.000 157.773 C 56.000 157.269,56.270 156.587,56.600 156.257 C 56.958 155.899,57.200 154.921,57.200 153.829 C 57.200 152.470,57.354 152.000,57.800 152.000 C 58.130 152.000,58.400 151.752,58.400 151.449 C 58.400 151.146,58.670 150.674,59.000 150.400 C 59.330 150.126,59.600 149.564,59.600 149.151 C 59.600 148.738,59.870 148.400,60.200 148.400 C 60.530 148.400,60.800 148.214,60.800 147.987 C 60.800 147.759,61.295 147.072,61.900 146.459 C 62.505 145.846,63.195 144.998,63.433 144.573 C 63.671 144.148,64.256 143.622,64.733 143.405 C 65.210 143.188,65.600 142.783,65.600 142.505 C 65.600 142.227,65.874 142.000,66.210 142.000 C 66.568 142.000,66.919 141.504,67.060 140.800 C 67.192 140.140,67.547 139.600,67.850 139.600 C 68.153 139.600,68.400 139.330,68.400 139.000 C 68.400 138.670,68.670 138.400,69.000 138.400 C 69.330 138.400,69.600 138.130,69.600 137.800 C 69.600 137.470,69.870 137.200,70.200 137.200 C 70.530 137.200,70.800 136.930,70.800 136.600 C 70.800 136.270,71.070 136.000,71.400 136.000 C 71.730 136.000,72.000 135.730,72.000 135.400 C 72.000 135.070,72.270 134.800,72.600 134.800 C 72.930 134.800,73.200 134.626,73.200 134.413 C 73.200 133.910,75.910 131.200,76.413 131.200 C 76.626 131.200,76.800 130.967,76.800 130.681 C 76.800 130.396,77.332 129.721,77.983 129.181 C 78.634 128.642,79.174 128.071,79.183 127.913 C 79.201 127.607,81.914 124.800,82.193 124.800 C 82.679 124.800,84.400 122.815,84.400 122.254 C 84.400 121.537,85.763 120.000,86.400 120.000 C 86.620 120.000,86.800 119.730,86.800 119.400 C 86.800 119.070,87.070 118.800,87.400 118.800 C 87.730 118.800,88.000 118.530,88.000 118.200 C 88.000 117.870,88.270 117.600,88.600 117.600 C 88.930 117.600,89.200 117.330,89.200 117.000 C 89.200 116.670,89.470 116.400,89.800 116.400 C 90.130 116.400,90.400 116.217,90.400 115.993 C 90.400 115.770,91.210 114.810,92.200 113.862 C 93.190 112.913,94.000 111.926,94.000 111.669 C 94.000 111.411,94.270 111.200,94.600 111.200 C 94.930 111.200,95.200 110.930,95.200 110.600 C 95.200 110.270,95.375 110.000,95.589 110.000 C 96.188 110.000,99.502 106.549,100.200 105.199 C 100.541 104.540,100.996 104.000,101.210 104.000 C 101.425 104.000,101.600 103.730,101.600 103.400 C 101.600 103.070,101.924 102.800,102.320 102.800 C 103.242 102.800,104.000 102.042,104.000 101.120 C 104.000 100.724,104.270 100.400,104.600 100.400 C 104.930 100.400,105.200 100.217,105.200 99.993 C 105.200 99.770,106.010 98.810,107.000 97.862 C 107.990 96.913,108.800 95.926,108.800 95.669 C 108.800 95.411,109.070 95.200,109.400 95.200 C 109.730 95.200,110.000 94.930,110.000 94.600 C 110.000 94.270,110.270 94.000,110.600 94.000 C 110.930 94.000,111.200 93.730,111.200 93.400 C 111.200 93.070,111.399 92.800,111.641 92.800 C 112.217 92.800,117.600 87.417,117.600 86.841 C 117.600 86.599,117.825 86.445,118.100 86.500 C 118.375 86.555,118.555 86.375,118.500 86.100 C 118.445 85.825,118.604 85.600,118.854 85.600 C 119.325 85.600,121.187 83.771,121.217 83.279 C 121.226 83.126,121.766 82.558,122.417 82.019 C 123.100 81.453,123.600 80.649,123.600 80.119 C 123.600 79.569,123.841 79.200,124.200 79.200 C 124.530 79.200,124.800 78.930,124.800 78.600 C 124.800 78.270,125.070 78.000,125.400 78.000 C 125.730 78.000,126.000 77.730,126.000 77.400 C 126.000 77.070,126.270 76.800,126.600 76.800 C 126.930 76.800,127.200 76.530,127.200 76.200 C 127.200 75.870,127.433 75.600,127.719 75.600 C 128.004 75.600,128.679 75.068,129.219 74.417 C 129.758 73.766,130.425 73.226,130.700 73.217 C 130.975 73.208,131.200 73.032,131.200 72.827 C 131.200 72.622,132.820 70.829,134.800 68.843 C 136.780 66.858,138.400 65.136,138.400 65.017 C 138.400 64.638,139.984 63.200,140.400 63.200 C 140.620 63.200,140.800 62.930,140.800 62.600 C 140.800 62.270,141.070 62.000,141.400 62.000 C 141.730 62.000,142.000 61.730,142.000 61.400 C 142.000 61.000,142.400 60.800,143.200 60.800 C 144.000 60.800,144.400 60.600,144.400 60.200 C 144.400 59.800,144.800 59.600,145.600 59.600 C 146.260 59.600,146.800 59.411,146.800 59.179 C 146.800 58.948,147.340 58.570,148.000 58.340 C 148.660 58.110,149.232 57.714,149.272 57.461 C 149.312 57.207,149.413 57.887,149.497 58.970 C 149.612 60.455,149.496 61.027,149.025 61.290 M230.303 145.315 C 231.567 146.478,233.053 147.873,233.607 148.415 C 234.160 148.957,237.306 151.920,240.597 155.000 C 243.889 158.080,248.566 162.490,250.991 164.800 C 253.417 167.110,258.182 171.610,261.581 174.800 C 264.979 177.990,269.569 182.338,271.780 184.463 C 279.895 192.262,281.073 193.303,284.800 195.978 C 295.244 203.473,305.472 206.170,318.299 204.812 C 328.719 203.708,339.237 211.008,344.193 222.784 C 345.837 226.689,345.744 226.921,341.776 228.789 C 339.893 229.675,338.124 230.400,337.845 230.400 C 337.567 230.400,335.732 230.926,333.769 231.569 C 315.840 237.443,291.808 234.628,274.800 224.661 C 269.965 221.827,269.801 221.693,257.205 210.234 C 250.938 204.533,245.088 199.345,244.205 198.707 C 243.322 198.069,238.190 193.374,232.800 188.274 C 227.410 183.175,221.472 177.562,219.605 175.801 C 206.630 163.568,207.020 164.158,209.861 161.041 C 217.873 152.254,226.719 143.208,227.303 143.204 C 227.690 143.202,229.040 144.152,230.303 145.315 M323.612 162.205 C 346.996 165.042,367.675 178.764,379.063 199.000 C 380.465 201.491,380.863 202.335,383.404 208.200 C 384.032 209.647,384.882 212.226,385.711 215.200 C 386.049 216.410,386.603 218.390,386.941 219.600 C 389.268 227.914,388.994 243.827,386.364 253.108 C 385.724 255.368,385.200 257.477,385.200 257.795 C 385.200 258.113,384.945 258.964,384.633 259.686 C 384.321 260.409,383.398 262.620,382.580 264.600 C 381.015 268.392,378.649 272.779,376.257 276.322 C 374.826 278.442,374.177 279.315,371.661 282.503 C 370.402 284.098,364.993 289.959,357.180 298.195 C 355.298 300.178,352.688 302.963,351.380 304.383 C 350.071 305.804,348.708 307.244,348.350 307.583 C 347.843 308.064,341.189 315.133,334.000 322.827 C 333.670 323.181,332.226 324.714,330.791 326.235 C 325.468 331.876,321.258 336.360,316.000 341.990 C 313.030 345.170,309.250 349.215,307.600 350.979 C 305.950 352.743,303.340 355.532,301.800 357.179 C 285.229 374.891,277.999 380.085,263.000 385.053 C 250.881 389.067,235.217 389.821,224.084 386.927 C 220.280 385.938,219.865 386.729,228.521 378.473 C 232.442 374.734,237.342 368.805,240.576 363.889 C 243.557 359.358,243.557 359.357,246.650 358.835 C 252.664 357.819,260.769 354.660,264.660 351.814 C 265.572 351.146,266.832 350.247,267.460 349.816 C 268.943 348.797,274.426 343.302,281.416 335.832 C 284.487 332.549,287.540 329.297,288.200 328.605 C 288.860 327.913,290.479 326.189,291.798 324.774 C 293.118 323.358,295.638 320.670,297.400 318.800 C 299.161 316.930,303.032 312.801,306.001 309.624 C 308.971 306.447,313.480 301.677,316.021 299.024 C 320.223 294.638,323.176 291.487,328.977 285.200 C 331.219 282.769,342.515 270.728,345.979 267.077 C 359.696 252.615,362.946 232.940,354.448 215.800 C 345.600 197.953,328.149 189.050,307.080 191.634 C 304.003 192.011,303.433 191.982,302.550 191.404 C 301.600 190.781,293.492 184.229,291.103 182.153 C 290.500 181.629,289.158 180.552,288.121 179.760 C 281.980 175.073,278.845 172.112,279.079 171.220 C 279.321 170.294,286.520 166.877,292.035 165.071 C 295.863 163.817,299.633 163.032,306.600 162.039 C 310.510 161.481,318.270 161.557,323.612 162.205 M100.151 165.827 C 105.852 166.591,113.062 168.481,117.200 170.295 C 126.671 174.448,134.185 179.356,141.066 185.882 C 142.642 187.377,146.325 190.850,149.250 193.600 C 152.175 196.350,156.098 200.040,157.966 201.800 C 159.835 203.560,162.723 206.270,164.382 207.823 C 166.042 209.375,170.730 213.786,174.800 217.625 C 178.870 221.464,184.765 227.013,187.900 229.956 C 194.608 236.253,194.570 236.146,191.318 239.703 C 181.227 250.745,174.566 257.334,173.887 256.946 C 173.384 256.658,161.773 245.983,157.414 241.800 C 152.007 236.612,146.203 231.102,144.564 229.603 C 139.625 225.082,136.721 222.384,133.180 219.025 C 114.983 201.758,113.861 200.880,105.807 197.603 C 98.075 194.457,87.690 193.664,79.600 195.601 C 72.465 197.310,72.102 197.227,66.200 192.529 C 59.784 187.422,54.415 174.826,57.612 172.381 C 64.683 166.972,85.159 163.818,100.151 165.827 M203.451 177.861 C 205.669 180.068,207.534 181.600,208.004 181.600 C 208.445 181.600,208.800 181.868,208.800 182.200 C 208.800 182.530,209.070 182.800,209.400 182.800 C 209.730 182.800,210.000 182.963,210.000 183.161 C 210.000 183.759,212.507 186.400,213.074 186.400 C 213.363 186.400,213.600 186.670,213.600 187.000 C 213.600 187.330,213.870 187.600,214.200 187.600 C 214.530 187.600,214.800 187.870,214.800 188.200 C 214.800 188.530,215.070 188.800,215.400 188.800 C 215.730 188.800,216.000 189.070,216.000 189.400 C 216.000 189.730,216.270 190.000,216.600 190.000 C 216.930 190.000,217.200 190.270,217.200 190.600 C 217.200 190.930,217.470 191.200,217.800 191.200 C 218.130 191.200,218.400 191.470,218.400 191.800 C 218.400 192.130,218.554 192.400,218.743 192.400 C 219.237 192.400,227.600 200.700,227.600 201.190 C 227.600 201.416,227.240 201.960,226.800 202.400 C 226.360 202.840,226.000 203.290,226.000 203.400 C 226.000 203.766,224.406 205.200,224.000 205.200 C 223.780 205.200,223.600 205.470,223.600 205.800 C 223.600 206.130,223.425 206.400,223.210 206.400 C 222.996 206.400,222.541 206.940,222.200 207.600 C 221.859 208.260,221.298 208.800,220.955 208.800 C 220.612 208.800,220.127 209.340,219.878 210.000 C 219.628 210.660,219.194 211.200,218.912 211.200 C 218.631 211.200,218.400 211.470,218.400 211.800 C 218.400 212.130,218.130 212.400,217.800 212.400 C 217.470 212.400,217.200 212.670,217.200 213.000 C 217.200 213.330,216.930 213.600,216.600 213.600 C 216.270 213.600,216.000 213.776,216.000 213.992 C 216.000 214.208,214.650 215.713,213.000 217.336 C 211.350 218.959,210.000 220.493,210.000 220.744 C 210.000 220.995,209.773 221.200,209.495 221.200 C 209.217 221.200,208.812 221.605,208.595 222.100 C 208.378 222.595,207.795 223.178,207.300 223.395 C 206.805 223.612,206.400 223.999,206.400 224.254 C 206.400 224.509,205.910 225.276,205.311 225.959 C 204.162 227.268,202.400 227.656,202.400 226.600 C 202.400 226.270,202.130 226.000,201.800 226.000 C 201.470 226.000,201.200 225.730,201.200 225.400 C 201.200 225.070,200.930 224.800,200.600 224.800 C 200.270 224.800,200.000 224.530,200.000 224.200 C 200.000 223.870,199.804 223.600,199.564 223.600 C 199.324 223.600,198.260 222.700,197.200 221.600 C 196.140 220.500,195.031 219.592,194.736 219.583 C 194.441 219.574,193.758 219.034,193.219 218.383 C 192.679 217.732,192.004 217.200,191.719 217.200 C 191.433 217.200,191.200 216.930,191.200 216.600 C 191.200 216.270,190.930 216.000,190.600 216.000 C 190.270 216.000,190.000 215.730,190.000 215.400 C 190.000 215.070,189.730 214.800,189.400 214.800 C 189.070 214.800,188.800 214.530,188.800 214.200 C 188.800 213.870,188.530 213.600,188.200 213.600 C 187.870 213.600,187.600 213.330,187.600 213.000 C 187.600 212.670,187.330 212.400,187.000 212.400 C 186.670 212.400,186.400 212.130,186.400 211.800 C 186.400 211.470,186.130 211.200,185.800 211.200 C 185.470 211.200,185.200 210.930,185.200 210.600 C 185.200 210.270,184.930 210.000,184.600 210.000 C 184.270 210.000,184.000 209.730,184.000 209.400 C 184.000 209.070,183.730 208.800,183.400 208.800 C 183.070 208.800,182.800 208.530,182.800 208.200 C 182.800 207.870,182.530 207.600,182.200 207.600 C 181.870 207.600,181.600 207.330,181.600 207.000 C 181.600 206.670,181.330 206.400,181.000 206.400 C 180.670 206.400,180.400 206.130,180.400 205.800 C 180.400 205.470,180.265 205.198,180.100 205.195 C 179.612 205.186,174.000 199.699,174.000 199.230 C 174.000 198.993,174.270 198.800,174.600 198.800 C 174.930 198.800,175.200 198.530,175.200 198.200 C 175.200 197.870,175.389 197.600,175.619 197.600 C 176.107 197.600,178.000 195.645,178.000 195.142 C 178.000 194.954,178.270 194.800,178.600 194.800 C 178.930 194.800,179.200 194.626,179.200 194.413 C 179.200 193.910,181.910 191.200,182.413 191.200 C 182.626 191.200,182.800 191.020,182.800 190.800 C 182.800 190.580,183.160 190.040,183.600 189.600 C 184.040 189.160,184.580 188.800,184.800 188.800 C 185.020 188.800,185.200 188.631,185.200 188.425 C 185.200 188.218,185.740 187.458,186.400 186.736 C 187.060 186.013,187.600 185.102,187.600 184.711 C 187.600 184.320,187.870 184.000,188.200 184.000 C 188.530 184.000,188.800 183.730,188.800 183.400 C 188.800 183.070,189.070 182.800,189.400 182.800 C 189.730 182.800,190.000 182.530,190.000 182.200 C 190.000 181.870,190.270 181.600,190.600 181.600 C 190.930 181.600,191.200 181.330,191.200 181.000 C 191.200 180.670,191.356 180.400,191.547 180.400 C 192.037 180.400,196.400 176.085,196.400 175.600 C 196.400 175.380,196.670 175.200,197.000 175.200 C 197.330 175.200,197.600 174.945,197.600 174.633 C 197.600 173.977,198.357 173.628,199.147 173.920 C 199.447 174.031,201.384 175.804,203.451 177.861 M245.197 215.552 C 254.103 223.793,258.070 227.381,258.652 227.720 C 260.123 228.578,259.651 229.181,247.019 242.600 C 243.499 246.340,240.164 249.850,239.609 250.401 C 239.054 250.952,236.513 253.652,233.963 256.401 C 226.714 264.214,216.932 274.649,213.151 278.600 C 204.443 287.700,202.046 291.025,198.875 298.400 C 196.065 304.934,195.048 315.968,196.609 322.982 C 197.594 327.411,197.352 328.110,193.364 332.347 C 186.021 340.147,174.749 346.024,172.312 343.321 C 171.087 341.963,168.843 334.883,167.835 329.200 C 167.464 327.110,166.975 324.500,166.748 323.400 C 165.807 318.841,166.804 302.851,168.394 297.000 C 169.414 293.249,170.544 289.773,170.860 289.420 C 171.047 289.211,171.200 288.744,171.200 288.381 C 171.200 288.019,171.456 287.200,171.768 286.561 C 172.080 285.923,173.050 283.865,173.922 281.989 C 175.355 278.911,180.131 271.303,182.190 268.824 C 184.117 266.502,188.103 262.197,201.833 247.610 C 205.274 243.955,205.988 243.194,212.145 236.609 C 214.815 233.754,218.723 229.614,220.828 227.409 C 223.927 224.164,227.718 220.117,230.993 216.558 C 238.661 208.227,237.379 208.318,245.197 215.552 M21.823 223.100 C 27.336 229.475,37.497 238.071,42.691 240.754 C 44.494 241.686,45.098 242.590,45.445 244.883 C 46.768 253.620,50.262 261.359,55.761 267.730 C 57.528 269.777,70.088 281.840,80.600 291.586 C 82.580 293.422,85.550 296.206,87.200 297.774 C 94.439 304.653,98.434 308.407,110.217 319.400 C 120.805 329.278,122.628 330.994,129.747 337.784 C 137.759 345.425,140.468 347.901,141.789 348.791 C 145.438 351.249,146.590 351.932,149.622 353.431 C 159.388 358.259,168.806 359.020,181.473 356.006 C 188.883 354.243,198.430 347.699,203.940 340.606 C 205.572 338.506,209.200 332.613,209.200 332.063 C 209.200 331.953,209.637 330.769,210.172 329.431 C 213.151 321.979,213.927 312.441,212.241 304.000 L 211.482 300.200 212.335 298.528 C 213.701 295.850,217.796 291.209,228.450 280.263 C 232.649 275.949,232.700 275.958,235.390 281.483 C 242.550 296.189,244.599 317.710,240.229 332.300 C 239.883 333.455,239.348 335.255,239.041 336.300 C 234.579 351.456,222.204 367.323,207.996 376.106 C 204.711 378.137,195.205 382.799,194.340 382.802 C 194.043 382.804,193.343 383.044,192.783 383.335 C 182.932 388.477,157.715 388.514,144.800 383.407 C 144.030 383.102,142.153 382.373,140.628 381.785 C 133.628 379.088,123.972 372.962,118.800 367.937 C 116.321 365.528,110.358 359.922,106.994 356.838 C 105.457 355.430,102.387 352.550,100.172 350.438 C 97.956 348.327,94.626 345.176,92.772 343.436 C 90.917 341.695,88.230 339.169,86.800 337.821 C 82.409 333.684,77.262 328.855,71.000 323.000 C 67.706 319.920,63.569 316.036,61.806 314.368 C 60.043 312.700,57.166 310.000,55.414 308.368 C 31.147 285.761,25.505 278.970,21.376 267.400 C 20.983 266.300,20.531 265.220,20.370 265.000 C 19.989 264.477,17.727 257.004,17.405 255.200 C 17.267 254.430,16.855 252.630,16.490 251.200 C 15.534 247.453,15.525 230.018,16.478 226.800 C 16.836 225.590,17.256 223.790,17.411 222.800 C 17.929 219.490,18.749 219.546,21.823 223.100 M136.000 238.600 C 136.000 238.930,136.270 239.200,136.600 239.200 C 136.930 239.200,137.200 239.470,137.200 239.800 C 137.200 240.130,137.348 240.400,137.528 240.400 C 137.708 240.400,139.826 242.335,142.234 244.700 C 146.880 249.263,149.632 251.600,150.358 251.600 C 150.601 251.600,150.800 251.870,150.800 252.200 C 150.800 252.530,151.056 252.800,151.368 252.800 C 151.681 252.800,152.055 253.340,152.200 254.000 C 152.345 254.660,152.676 255.200,152.936 255.200 C 153.195 255.200,153.632 255.560,153.907 256.000 C 154.182 256.440,154.591 256.800,154.817 256.800 C 155.042 256.800,155.755 257.340,156.400 258.000 C 157.045 258.660,157.770 259.200,158.010 259.200 C 158.251 259.200,158.328 259.392,158.183 259.627 C 158.038 259.862,158.297 260.153,158.760 260.274 C 159.222 260.394,159.600 260.742,159.600 261.047 C 159.600 261.351,159.780 261.600,160.000 261.600 C 160.519 261.600,162.000 263.081,162.000 263.600 C 162.000 263.820,162.270 264.000,162.600 264.000 C 162.930 264.000,163.200 264.270,163.200 264.600 C 163.200 264.930,163.441 265.200,163.736 265.200 C 164.442 265.200,166.800 267.808,166.800 268.589 C 166.800 268.925,166.530 269.200,166.200 269.200 C 165.800 269.200,165.600 269.600,165.600 270.400 C 165.600 271.200,165.400 271.600,165.000 271.600 C 164.600 271.600,164.400 272.000,164.400 272.800 C 164.400 273.600,164.200 274.000,163.800 274.000 C 163.400 274.000,163.200 274.400,163.200 275.200 C 163.200 276.000,163.000 276.400,162.600 276.400 C 162.200 276.400,162.000 276.800,162.000 277.600 C 162.000 278.400,161.800 278.800,161.400 278.800 C 160.956 278.800,160.800 279.267,160.800 280.600 C 160.800 281.933,160.644 282.400,160.200 282.400 C 159.755 282.400,159.600 282.868,159.600 284.213 C 159.600 285.413,159.407 286.099,159.030 286.244 C 158.716 286.364,158.334 287.214,158.181 288.131 C 158.028 289.049,157.730 289.909,157.521 290.042 C 157.311 290.176,157.036 291.076,156.910 292.042 C 156.783 293.009,156.491 293.923,156.261 294.073 C 156.030 294.223,155.764 295.564,155.669 297.053 C 155.571 298.598,155.261 299.996,154.948 300.309 C 154.562 300.695,154.400 301.961,154.400 304.586 C 154.400 307.531,154.274 308.363,153.800 308.545 C 152.975 308.861,153.019 311.564,153.869 312.777 C 154.362 313.481,154.388 313.647,153.969 313.408 C 153.508 313.144,153.495 313.185,153.900 313.621 C 154.261 314.010,154.400 316.132,154.400 321.251 C 154.400 327.022,154.512 328.455,155.000 328.943 C 155.412 329.355,155.600 330.370,155.600 332.184 C 155.600 334.163,155.750 334.883,156.200 335.055 C 156.616 335.215,156.800 335.864,156.800 337.166 C 156.800 338.201,157.064 339.396,157.387 339.824 C 158.616 341.447,158.186 342.800,156.443 342.800 C 155.428 342.800,154.805 342.591,154.655 342.200 C 154.529 341.870,154.169 341.600,153.855 341.600 C 153.542 341.600,153.182 341.330,153.055 341.000 C 152.929 340.670,152.369 340.400,151.813 340.400 C 151.179 340.400,150.800 340.175,150.800 339.800 C 150.800 339.470,150.524 339.200,150.187 339.200 C 149.851 339.200,149.471 338.930,149.345 338.600 C 149.218 338.270,148.768 338.000,148.345 338.000 C 147.921 338.000,147.471 337.730,147.345 337.400 C 147.218 337.070,146.954 336.800,146.757 336.800 C 146.271 336.800,144.800 335.296,144.800 334.800 C 144.800 334.580,144.640 334.400,144.444 334.400 C 143.955 334.400,139.600 330.077,139.600 329.592 C 139.600 329.376,139.330 329.200,139.000 329.200 C 138.670 329.200,138.400 328.930,138.400 328.600 C 138.400 328.270,138.130 328.000,137.800 328.000 C 137.470 328.000,137.200 327.730,137.200 327.400 C 137.200 327.070,137.024 326.800,136.808 326.800 C 136.592 326.800,135.087 325.450,133.464 323.800 C 131.841 322.150,130.307 320.800,130.056 320.800 C 129.805 320.800,129.600 320.620,129.600 320.400 C 129.600 319.881,128.119 318.400,127.600 318.400 C 127.380 318.400,127.200 318.130,127.200 317.800 C 127.200 317.470,126.949 317.200,126.643 317.200 C 126.336 317.200,125.972 316.904,125.833 316.543 C 125.695 316.181,125.468 315.998,125.330 316.136 C 125.193 316.274,124.665 315.940,124.159 315.393 C 123.653 314.847,123.140 314.400,123.019 314.400 C 122.639 314.400,121.200 312.818,121.200 312.400 C 121.200 312.180,121.024 312.000,120.808 312.000 C 120.592 312.000,119.087 310.650,117.464 309.000 C 115.841 307.350,114.307 306.000,114.056 306.000 C 113.805 306.000,113.600 305.730,113.600 305.400 C 113.600 305.070,113.330 304.800,113.000 304.800 C 112.670 304.800,112.400 304.530,112.400 304.200 C 112.400 303.870,112.130 303.600,111.800 303.600 C 111.470 303.600,111.200 303.330,111.200 303.000 C 111.200 302.670,110.930 302.400,110.600 302.400 C 110.270 302.400,110.000 302.151,110.000 301.847 C 110.000 301.542,109.622 301.194,109.160 301.074 C 108.697 300.953,108.438 300.662,108.583 300.427 C 108.728 300.192,108.567 300.000,108.224 300.000 C 107.881 300.000,107.600 299.726,107.600 299.390 C 107.600 299.032,107.104 298.681,106.400 298.540 C 105.740 298.408,105.200 298.053,105.200 297.750 C 105.200 297.447,104.930 297.200,104.600 297.200 C 104.270 297.200,104.000 296.930,104.000 296.600 C 104.000 296.270,103.820 296.000,103.600 296.000 C 103.081 296.000,101.600 294.519,101.600 294.000 C 101.600 293.780,101.330 293.600,101.000 293.600 C 100.670 293.600,100.400 293.330,100.400 293.000 C 100.400 292.670,100.130 292.400,99.800 292.400 C 99.470 292.400,99.200 292.130,99.200 291.800 C 99.200 291.470,98.975 291.192,98.700 291.183 C 98.425 291.174,97.758 290.634,97.219 289.983 C 96.679 289.332,96.004 288.800,95.719 288.800 C 95.433 288.800,95.200 288.530,95.200 288.200 C 95.200 287.870,94.930 287.600,94.600 287.600 C 94.270 287.600,94.000 287.330,94.000 287.000 C 94.000 286.670,93.730 286.400,93.400 286.400 C 93.070 286.400,92.800 286.142,92.800 285.827 C 92.800 285.512,92.437 285.139,91.994 284.998 C 91.551 284.857,91.292 284.575,91.418 284.371 C 91.544 284.167,91.466 284.000,91.244 284.000 C 91.023 284.000,90.359 283.553,89.770 283.007 C 89.181 282.462,88.514 282.129,88.288 282.269 C 88.062 282.409,87.992 282.336,88.134 282.107 C 88.275 281.878,88.104 281.453,87.754 281.162 C 87.403 280.871,86.960 280.220,86.768 279.716 C 86.564 279.179,86.086 278.800,85.612 278.800 C 85.152 278.800,83.798 277.768,82.463 276.400 C 81.176 275.080,79.915 274.000,79.661 274.000 C 79.407 274.000,79.200 273.730,79.200 273.400 C 79.200 273.070,78.930 272.800,78.600 272.800 C 78.270 272.800,78.000 272.530,78.000 272.200 C 78.000 271.870,77.730 271.600,77.400 271.600 C 77.070 271.600,76.800 271.418,76.800 271.194 C 76.800 270.367,68.915 262.800,68.053 262.800 C 67.468 262.800,67.200 262.550,67.200 262.003 C 67.200 261.565,66.840 260.982,66.400 260.707 C 65.960 260.432,65.600 260.071,65.600 259.904 C 65.600 259.459,64.067 258.000,63.600 258.000 C 63.380 258.000,63.200 257.752,63.200 257.449 C 63.200 257.146,62.930 256.674,62.600 256.400 C 62.270 256.126,62.000 255.564,62.000 255.151 C 62.000 254.738,61.730 254.400,61.400 254.400 C 60.999 254.400,60.800 253.999,60.800 253.187 C 60.800 252.479,60.551 251.879,60.200 251.745 C 59.779 251.583,59.609 250.961,59.632 249.657 C 59.649 248.636,59.754 248.026,59.866 248.302 C 59.977 248.579,60.233 248.703,60.434 248.579 C 60.635 248.455,60.800 248.543,60.800 248.776 C 60.800 249.009,61.411 249.200,62.157 249.200 C 62.995 249.200,63.603 249.430,63.745 249.800 C 63.919 250.254,64.654 250.400,66.768 250.400 C 68.904 250.400,69.644 250.549,69.916 251.036 C 70.112 251.386,70.391 251.656,70.536 251.636 C 72.861 251.320,77.200 251.688,77.200 252.200 C 77.200 253.179,94.211 253.085,95.337 252.100 C 95.917 251.593,96.047 251.565,95.810 252.000 C 95.544 252.488,95.583 252.506,96.021 252.100 C 96.357 251.789,97.738 251.600,99.680 251.600 C 102.187 251.600,102.800 251.482,102.800 251.000 C 102.800 250.520,103.400 250.400,105.800 250.400 C 108.200 250.400,108.800 250.280,108.800 249.800 C 108.800 249.339,109.313 249.200,111.013 249.200 C 112.610 249.200,113.289 249.033,113.455 248.600 C 113.587 248.256,114.185 248.000,114.855 248.000 C 115.526 248.000,116.123 247.744,116.255 247.400 C 116.406 247.008,117.029 246.800,118.055 246.800 C 119.082 246.800,119.705 246.592,119.855 246.200 C 120.005 245.811,120.625 245.600,121.623 245.600 C 122.468 245.600,123.304 245.375,123.480 245.100 C 123.839 244.539,124.955 243.791,126.300 243.209 C 126.795 242.995,127.200 242.635,127.200 242.410 C 127.200 242.184,127.639 242.000,128.176 242.000 C 128.713 242.000,129.266 241.817,129.404 241.594 C 129.542 241.371,130.272 240.930,131.027 240.614 C 131.782 240.299,132.400 239.852,132.400 239.620 C 132.400 239.389,132.670 239.200,133.000 239.200 C 133.330 239.200,133.600 238.930,133.600 238.600 C 133.600 238.200,134.000 238.000,134.800 238.000 C 135.600 238.000,136.000 238.200,136.000 238.600 M271.007 238.388 C 270.788 238.744,271.381 238.973,273.321 239.284 C 273.718 239.348,274.022 239.580,273.998 239.800 C 273.944 240.275,275.311 240.705,277.054 240.760 C 277.744 240.782,278.824 241.069,279.454 241.398 C 280.084 241.726,280.984 241.996,281.454 241.998 C 281.924 241.999,282.824 242.269,283.454 242.598 C 284.084 242.926,285.500 243.202,286.600 243.210 C 287.717 243.219,288.943 243.485,289.376 243.813 C 289.804 244.136,290.671 244.400,291.305 244.400 C 291.939 244.400,292.727 244.670,293.057 245.000 C 293.464 245.407,294.471 245.600,296.186 245.600 C 298.025 245.600,298.775 245.758,298.937 246.180 C 299.280 247.073,325.652 247.102,326.392 246.209 C 326.756 245.771,327.674 245.600,329.662 245.600 C 331.749 245.600,332.481 245.453,332.655 245.000 C 332.809 244.598,333.441 244.400,334.566 244.400 C 335.491 244.400,336.596 244.136,337.024 243.813 C 337.451 243.490,338.192 243.220,338.671 243.213 C 339.151 243.206,339.813 242.930,340.143 242.600 C 340.473 242.270,341.183 242.000,341.721 242.000 C 343.370 242.000,345.199 241.522,344.970 241.151 C 344.850 240.958,345.123 240.800,345.576 240.800 C 346.526 240.800,346.692 241.802,345.800 242.145 C 345.404 242.297,345.200 242.923,345.200 243.987 C 345.200 245.154,345.034 245.600,344.600 245.600 C 344.166 245.600,344.000 246.046,344.000 247.213 C 344.000 248.277,343.796 248.903,343.400 249.055 C 343.070 249.182,342.800 249.514,342.800 249.794 C 342.800 250.073,342.530 250.526,342.200 250.800 C 341.870 251.074,341.600 251.726,341.600 252.249 C 341.600 252.828,341.365 253.200,341.000 253.200 C 340.600 253.200,340.400 253.600,340.400 254.400 C 340.400 255.200,340.200 255.600,339.800 255.600 C 339.470 255.600,339.200 255.870,339.200 256.200 C 339.200 256.530,338.930 256.800,338.600 256.800 C 338.270 256.800,338.000 257.070,338.000 257.400 C 338.000 257.730,337.730 258.000,337.400 258.000 C 337.070 258.000,336.800 258.270,336.800 258.600 C 336.800 258.930,336.530 259.200,336.200 259.200 C 335.870 259.200,335.600 259.470,335.600 259.800 C 335.600 260.130,335.330 260.400,335.000 260.400 C 334.670 260.400,334.400 260.670,334.400 261.000 C 334.400 261.330,334.243 261.600,334.051 261.600 C 333.596 261.600,326.800 268.396,326.800 268.851 C 326.800 269.043,326.530 269.200,326.200 269.200 C 325.870 269.200,325.600 269.448,325.600 269.751 C 325.600 270.054,325.330 270.526,325.000 270.800 C 324.670 271.074,324.400 271.636,324.400 272.049 C 324.400 272.462,324.130 272.800,323.800 272.800 C 323.470 272.800,323.200 273.070,323.200 273.400 C 323.200 273.730,322.930 274.000,322.600 274.000 C 322.270 274.000,322.000 274.270,322.000 274.600 C 322.000 274.930,321.730 275.200,321.400 275.200 C 321.070 275.200,320.800 275.470,320.800 275.800 C 320.800 276.130,320.530 276.400,320.200 276.400 C 319.870 276.400,319.600 276.670,319.600 277.000 C 319.600 277.330,319.412 277.600,319.183 277.600 C 318.953 277.600,317.243 279.122,315.383 280.983 C 313.522 282.843,312.000 284.553,312.000 284.783 C 312.000 285.012,311.730 285.200,311.400 285.200 C 311.070 285.200,310.800 285.374,310.800 285.587 C 310.800 285.799,310.164 286.609,309.387 287.387 C 308.609 288.164,307.799 288.800,307.587 288.800 C 307.374 288.800,307.200 288.986,307.200 289.213 C 307.200 289.441,306.660 290.155,306.000 290.800 C 305.340 291.445,304.800 292.339,304.800 292.787 C 304.800 293.243,304.537 293.600,304.200 293.600 C 303.870 293.600,303.600 293.870,303.600 294.200 C 303.600 294.530,303.412 294.800,303.183 294.800 C 302.953 294.800,301.243 296.322,299.383 298.183 C 297.522 300.043,296.000 301.753,296.000 301.983 C 296.000 302.212,295.730 302.400,295.400 302.400 C 295.070 302.400,294.800 302.670,294.800 303.000 C 294.800 303.330,294.530 303.600,294.200 303.600 C 293.870 303.600,293.600 303.870,293.600 304.200 C 293.600 304.530,293.330 304.800,293.000 304.800 C 292.670 304.800,292.400 304.971,292.400 305.180 C 292.400 305.389,291.332 306.632,290.027 307.941 C 288.722 309.250,287.762 310.429,287.894 310.560 C 288.026 310.692,287.899 310.800,287.613 310.800 C 287.049 310.800,285.200 312.625,285.200 313.181 C 285.200 313.367,284.030 314.719,282.600 316.185 C 281.170 317.651,280.000 319.019,280.000 319.225 C 280.000 319.431,279.730 319.600,279.400 319.600 C 279.070 319.600,278.800 319.870,278.800 320.200 C 278.800 320.530,278.530 320.800,278.200 320.800 C 277.870 320.800,277.600 321.070,277.600 321.400 C 277.600 321.730,277.330 322.000,277.000 322.000 C 276.670 322.000,276.400 322.270,276.400 322.600 C 276.400 322.930,276.130 323.200,275.800 323.200 C 275.470 323.200,275.200 323.470,275.200 323.800 C 275.200 324.130,274.930 324.400,274.600 324.400 C 274.270 324.400,274.000 324.670,274.000 325.000 C 274.000 325.330,273.730 325.600,273.400 325.600 C 273.070 325.600,272.800 325.870,272.800 326.200 C 272.800 326.530,272.530 326.800,272.200 326.800 C 271.870 326.800,271.600 327.070,271.600 327.400 C 271.600 327.730,271.330 328.000,271.000 328.000 C 270.670 328.000,270.400 328.201,270.400 328.447 C 270.400 328.693,269.230 330.042,267.800 331.444 C 266.309 332.906,265.200 334.336,265.200 334.797 C 265.200 335.244,264.934 335.600,264.600 335.600 C 264.270 335.600,264.000 335.870,264.000 336.200 C 264.000 336.530,263.730 336.800,263.400 336.800 C 263.070 336.800,262.800 337.070,262.800 337.400 C 262.800 337.730,262.530 338.000,262.200 338.000 C 261.870 338.000,261.600 338.270,261.600 338.600 C 261.600 338.975,261.221 339.200,260.587 339.200 C 260.031 339.200,259.471 339.470,259.345 339.800 C 259.218 340.130,258.864 340.400,258.557 340.400 C 258.251 340.400,258.000 340.670,258.000 341.000 C 258.000 341.330,257.730 341.600,257.400 341.600 C 257.070 341.600,256.800 341.870,256.800 342.200 C 256.800 342.600,256.400 342.800,255.600 342.800 C 254.800 342.800,254.400 343.000,254.400 343.400 C 254.400 343.842,253.938 344.000,252.643 344.000 C 251.450 344.000,250.812 344.193,250.655 344.600 C 250.529 344.930,250.149 345.200,249.813 345.200 C 249.476 345.200,249.200 344.930,249.200 344.600 C 249.200 344.270,249.470 344.000,249.800 344.000 C 250.246 344.000,250.400 343.530,250.400 342.171 C 250.400 341.079,250.642 340.101,251.000 339.743 C 251.356 339.387,251.600 338.410,251.600 337.343 C 251.600 336.276,251.844 335.298,252.200 334.943 C 252.569 334.574,252.800 333.594,252.800 332.400 C 252.800 331.206,253.031 330.226,253.400 329.857 C 253.860 329.397,254.000 328.237,254.000 324.871 C 254.000 321.290,254.113 320.442,254.616 320.249 C 255.482 319.917,255.433 308.291,254.563 307.569 C 254.132 307.212,254.000 305.888,254.000 301.938 C 254.000 297.718,253.890 296.733,253.400 296.545 C 252.980 296.383,252.800 295.728,252.800 294.357 C 252.800 292.884,252.652 292.400,252.200 292.400 C 251.733 292.400,251.600 291.867,251.600 290.000 C 251.600 288.133,251.467 287.600,251.000 287.600 C 250.555 287.600,250.400 287.132,250.400 285.787 C 250.400 284.545,250.211 283.902,249.800 283.745 C 249.396 283.590,249.200 282.955,249.200 281.800 C 249.200 280.645,249.004 280.010,248.600 279.855 C 248.270 279.729,248.000 279.169,248.000 278.613 C 248.000 277.979,247.775 277.600,247.400 277.600 C 247.000 277.600,246.800 277.200,246.800 276.400 C 246.800 275.600,246.600 275.200,246.200 275.200 C 245.825 275.200,245.600 274.821,245.600 274.187 C 245.600 273.631,245.330 273.071,245.000 272.945 C 244.658 272.813,244.400 272.217,244.400 271.557 C 244.400 270.795,244.195 270.400,243.800 270.400 C 243.470 270.400,243.200 270.053,243.200 269.629 C 243.200 269.204,242.926 268.584,242.592 268.249 C 241.982 267.640,241.885 265.082,242.486 265.453 C 242.662 265.562,242.922 265.348,243.064 264.978 C 243.390 264.128,245.897 261.600,246.413 261.600 C 246.626 261.600,246.800 261.330,246.800 261.000 C 246.800 260.670,247.070 260.400,247.400 260.400 C 247.730 260.400,248.000 260.130,248.000 259.800 C 248.000 259.470,248.270 259.200,248.600 259.200 C 248.930 259.200,249.200 259.014,249.200 258.787 C 249.200 258.559,249.740 257.845,250.400 257.200 C 251.060 256.555,251.600 255.841,251.600 255.613 C 251.600 255.386,251.870 255.200,252.200 255.200 C 252.530 255.200,252.800 254.930,252.800 254.600 C 252.800 254.270,253.070 254.000,253.400 254.000 C 253.730 254.000,254.000 253.730,254.000 253.400 C 254.000 253.070,254.270 252.800,254.600 252.800 C 254.930 252.800,255.200 252.530,255.200 252.200 C 255.200 251.870,255.390 251.600,255.622 251.600 C 256.238 251.600,261.355 246.385,261.464 245.647 C 261.514 245.303,261.880 244.799,262.278 244.527 C 262.675 244.255,263.180 243.836,263.400 243.596 C 264.862 242.001,265.200 241.560,265.200 241.243 C 265.200 241.046,265.470 240.782,265.800 240.655 C 266.130 240.529,266.400 240.149,266.400 239.813 C 266.400 239.476,266.670 239.200,267.000 239.200 C 267.330 239.200,267.600 238.930,267.600 238.600 C 267.600 238.154,268.069 238.000,269.424 238.000 C 270.501 238.000,271.149 238.159,271.007 238.388 " stroke="none" fill="#5c95f6" fill-rule="evenodd"></path><path id="path1" d="M225.972 12.063 C 219.560 12.397,208.750 14.727,204.200 16.756 C 203.760 16.952,202.050 17.686,200.400 18.387 C 190.854 22.446,179.192 32.592,171.881 43.200 C 165.357 52.667,163.602 55.948,161.824 62.000 C 161.469 63.210,161.008 64.740,160.801 65.400 C 158.349 73.209,157.751 90.474,159.647 98.723 C 161.137 105.211,162.719 110.533,164.008 113.400 C 164.602 114.720,165.211 116.160,165.363 116.600 C 166.072 118.658,169.454 123.997,170.049 123.999 C 171.061 124.001,184.879 109.089,187.918 104.715 C 190.507 100.989,190.596 100.440,189.322 96.059 C 188.267 92.432,188.200 91.744,188.200 84.600 C 188.200 76.641,188.131 77.100,190.449 69.600 C 194.079 57.855,204.261 47.523,215.800 43.876 C 223.862 41.329,223.452 41.398,230.200 41.435 C 238.500 41.479,245.219 43.022,252.247 46.497 C 255.421 48.066,261.200 51.845,261.200 52.351 C 261.200 52.531,261.548 52.840,261.974 53.039 C 262.400 53.237,264.245 54.841,266.074 56.602 C 267.903 58.364,272.460 62.678,276.200 66.189 C 279.940 69.701,284.869 74.380,287.154 76.587 C 292.182 81.443,292.512 81.756,298.998 87.800 C 301.832 90.440,304.714 93.140,305.403 93.800 C 306.092 94.460,308.173 96.427,310.028 98.171 C 313.217 101.170,315.781 103.599,324.200 111.597 C 326.180 113.478,330.223 117.263,333.185 120.008 C 344.371 130.377,346.997 133.530,350.810 141.172 C 353.024 145.610,354.163 149.444,355.925 158.395 C 356.161 159.593,356.651 160.080,359.400 161.850 C 368.503 167.714,373.329 171.847,380.782 180.163 L 382.164 181.705 382.908 179.952 C 385.639 173.524,385.930 153.713,383.419 145.200 C 383.127 144.210,382.585 142.320,382.214 141.000 C 381.276 137.656,379.941 133.873,379.538 133.420 C 379.352 133.211,379.200 132.752,379.200 132.400 C 379.200 131.571,375.724 124.830,373.189 120.743 C 369.005 113.998,363.965 108.277,354.600 99.644 C 351.201 96.511,347.617 93.129,340.791 86.616 C 338.476 84.407,335.146 81.260,333.391 79.621 C 330.090 76.540,319.243 66.268,312.217 59.571 C 310.008 57.464,304.960 52.700,301.000 48.982 C 297.040 45.265,292.192 40.688,290.226 38.812 C 285.210 34.024,285.281 34.090,281.977 31.158 C 273.825 23.923,260.616 16.814,251.200 14.594 C 240.904 12.167,235.110 11.585,225.972 12.063 M155.000 13.438 C 148.955 13.894,136.382 16.796,135.020 18.050 C 134.811 18.243,134.377 18.400,134.055 18.400 C 132.804 18.400,123.973 23.006,119.624 25.927 C 113.727 29.888,106.659 36.835,87.200 57.794 C 85.770 59.334,84.509 60.686,84.397 60.797 C 84.285 60.909,82.585 62.710,80.620 64.800 C 78.655 66.890,75.857 69.860,74.403 71.400 C 72.949 72.940,66.118 80.230,59.224 87.600 C 52.329 94.970,46.128 101.551,45.444 102.224 C 43.667 103.974,38.790 109.162,34.600 113.762 C 32.620 115.935,30.717 118.003,30.371 118.357 C 28.681 120.086,22.000 129.795,22.000 130.522 C 22.000 130.656,21.488 131.633,20.862 132.695 C 19.241 135.444,16.150 143.303,15.393 146.600 C 15.040 148.140,14.506 150.390,14.208 151.600 C 9.223 171.816,14.984 195.195,29.310 212.880 C 34.816 219.678,45.200 228.485,50.146 230.551 C 50.971 230.896,52.168 231.550,52.805 232.004 C 62.192 238.687,86.980 242.295,101.000 239.017 C 111.868 236.476,125.146 230.833,125.194 228.734 C 125.197 228.588,123.355 226.669,121.100 224.469 C 110.464 214.093,109.252 213.083,104.206 210.387 L 101.012 208.681 96.606 209.748 C 89.096 211.566,78.033 210.895,68.048 208.016 C 64.433 206.974,56.288 200.553,52.905 196.080 C 37.695 175.968,38.550 152.704,55.148 135.000 C 56.180 133.900,61.234 128.500,66.380 123.000 C 71.527 117.500,78.459 110.120,81.786 106.600 C 93.719 93.972,99.455 87.866,102.866 84.159 C 104.772 82.087,108.732 77.836,111.666 74.713 C 114.600 71.590,118.433 67.496,120.184 65.617 C 130.159 54.912,135.094 50.543,140.200 47.897 C 145.055 45.382,151.764 43.210,154.725 43.195 C 156.856 43.184,157.443 42.697,160.173 38.679 C 161.698 36.436,163.498 33.906,164.173 33.057 C 168.766 27.281,172.802 22.939,176.311 20.000 C 180.126 16.803,180.328 16.560,179.684 15.929 C 178.134 14.409,162.736 12.855,155.000 13.438 M223.165 54.420 C 221.635 54.783,218.540 55.952,215.776 57.211 C 211.971 58.944,207.879 62.751,204.901 67.327 C 202.828 70.513,202.823 70.681,204.576 78.800 C 206.587 88.115,205.244 98.082,200.792 106.880 C 198.054 112.291,195.500 115.580,187.646 123.811 C 181.620 130.126,172.212 140.110,169.765 142.786 C 166.338 146.534,161.941 151.215,153.969 159.602 C 141.698 172.512,142.482 170.955,146.483 174.469 C 149.075 176.745,153.478 180.866,160.700 187.776 C 164.782 191.683,164.127 191.859,170.400 185.162 C 172.930 182.461,175.360 179.877,175.800 179.420 C 177.975 177.163,183.906 170.841,188.200 166.202 C 190.840 163.350,195.070 158.852,197.600 156.207 C 213.638 139.441,219.802 132.459,223.090 127.333 C 225.217 124.018,229.200 116.385,229.200 115.624 C 229.200 115.385,229.371 114.877,229.581 114.495 C 230.135 113.482,231.089 111.125,231.319 110.200 C 231.428 109.760,231.987 107.690,232.562 105.600 C 236.994 89.468,235.387 72.004,227.969 55.700 C 227.126 53.846,226.402 53.653,223.165 54.420 M219.161 151.104 C 208.548 162.369,208.000 162.996,208.000 163.866 C 208.000 164.606,210.958 167.648,219.605 175.801 C 221.472 177.562,227.410 183.175,232.800 188.274 C 238.190 193.374,243.322 198.069,244.205 198.707 C 245.088 199.345,250.938 204.533,257.205 210.234 C 269.801 221.693,269.965 221.827,274.800 224.661 C 291.808 234.628,315.840 237.443,333.769 231.569 C 335.732 230.926,337.567 230.400,337.845 230.400 C 338.124 230.400,339.893 229.675,341.776 228.789 C 345.744 226.921,345.837 226.689,344.193 222.784 C 339.237 211.008,328.719 203.708,318.299 204.812 C 309.823 205.709,302.572 204.860,296.312 202.238 C 290.380 199.753,289.058 199.034,284.800 195.978 C 281.073 193.303,279.895 192.262,271.780 184.463 C 269.569 182.338,264.979 177.990,261.581 174.800 C 258.182 171.610,253.417 167.110,250.991 164.800 C 248.566 162.490,243.889 158.080,240.597 155.000 C 237.306 151.920,234.160 148.957,233.607 148.415 C 230.250 145.129,227.918 143.201,227.303 143.204 C 226.910 143.207,223.317 146.693,219.161 151.104 M306.600 162.039 C 299.633 163.032,295.863 163.817,292.035 165.071 C 286.520 166.877,279.321 170.294,279.079 171.220 C 278.845 172.112,281.980 175.073,288.121 179.760 C 289.158 180.552,290.500 181.629,291.103 182.153 C 293.492 184.229,301.600 190.781,302.550 191.404 C 303.433 191.982,304.003 192.011,307.080 191.634 C 351.065 186.239,376.276 235.134,345.979 267.077 C 342.515 270.728,331.219 282.769,328.977 285.200 C 323.176 291.487,320.223 294.638,316.021 299.024 C 313.480 301.677,308.971 306.447,306.001 309.624 C 303.032 312.801,299.161 316.930,297.400 318.800 C 295.638 320.670,293.118 323.358,291.798 324.774 C 290.479 326.189,288.860 327.913,288.200 328.605 C 287.540 329.297,284.487 332.549,281.416 335.832 C 274.426 343.302,268.943 348.797,267.460 349.816 C 266.832 350.247,265.572 351.146,264.660 351.814 C 260.769 354.660,252.664 357.819,246.650 358.835 C 243.557 359.357,243.557 359.358,240.576 363.889 C 237.342 368.805,232.442 374.734,228.521 378.473 C 219.865 386.729,220.280 385.938,224.084 386.927 C 235.217 389.821,250.881 389.067,263.000 385.053 C 277.999 380.085,285.229 374.891,301.800 357.179 C 303.340 355.532,305.950 352.743,307.600 350.979 C 309.250 349.215,313.030 345.170,316.000 341.990 C 321.258 336.360,325.468 331.876,330.791 326.235 C 332.226 324.714,333.670 323.181,334.000 322.827 C 341.189 315.133,347.843 308.064,348.350 307.583 C 348.708 307.244,350.071 305.804,351.380 304.383 C 352.688 302.963,355.298 300.178,357.180 298.195 C 370.242 284.427,372.647 281.669,376.257 276.322 C 378.649 272.779,381.015 268.392,382.580 264.600 C 383.398 262.620,384.321 260.409,384.633 259.686 C 384.945 258.964,385.200 258.113,385.200 257.795 C 385.200 257.477,385.724 255.368,386.364 253.108 C 388.994 243.827,389.268 227.914,386.941 219.600 C 386.603 218.390,386.049 216.410,385.711 215.200 C 384.882 212.226,384.032 209.647,383.404 208.200 C 383.118 207.540,382.492 206.100,382.013 205.000 C 373.994 186.589,356.947 171.366,337.281 165.054 C 328.159 162.126,315.035 160.836,306.600 162.039 M83.966 165.197 C 73.727 166.171,61.303 169.557,57.612 172.381 C 54.415 174.826,59.784 187.422,66.200 192.529 C 72.102 197.227,72.465 197.310,79.600 195.601 C 87.690 193.664,98.075 194.457,105.807 197.603 C 113.861 200.880,114.983 201.758,133.180 219.025 C 136.721 222.384,139.625 225.082,144.564 229.603 C 146.203 231.102,152.007 236.612,157.414 241.800 C 161.773 245.983,173.384 256.658,173.887 256.946 C 174.566 257.334,181.227 250.745,191.318 239.703 C 194.570 236.146,194.608 236.253,187.900 229.956 C 184.765 227.013,178.870 221.464,174.800 217.625 C 170.730 213.786,166.042 209.375,164.382 207.823 C 162.723 206.270,159.835 203.560,157.966 201.800 C 156.098 200.040,152.175 196.350,149.250 193.600 C 146.325 190.850,142.642 187.377,141.066 185.882 C 134.185 179.356,126.671 174.448,117.200 170.295 C 115.774 169.670,107.457 167.061,105.551 166.641 C 100.047 165.429,89.178 164.702,83.966 165.197 M236.775 210.682 C 235.722 211.568,233.613 213.711,230.993 216.558 C 227.718 220.117,223.927 224.164,220.828 227.409 C 218.723 229.614,214.815 233.754,212.145 236.609 C 205.988 243.194,205.274 243.955,201.833 247.610 C 188.103 262.197,184.117 266.502,182.190 268.824 C 180.131 271.303,175.355 278.911,173.922 281.989 C 173.050 283.865,172.080 285.923,171.768 286.561 C 171.456 287.200,171.200 288.019,171.200 288.381 C 171.200 288.744,171.047 289.211,170.860 289.420 C 170.544 289.773,169.414 293.249,168.394 297.000 C 166.804 302.851,165.807 318.841,166.748 323.400 C 166.975 324.500,167.464 327.110,167.835 329.200 C 168.843 334.883,171.087 341.963,172.312 343.321 C 174.749 346.024,186.021 340.147,193.364 332.347 C 197.352 328.110,197.594 327.411,196.609 322.982 C 195.048 315.968,196.065 304.934,198.875 298.400 C 202.046 291.025,204.443 287.700,213.151 278.600 C 216.932 274.649,226.714 264.214,233.963 256.401 C 236.513 253.652,239.054 250.952,239.609 250.401 C 240.164 249.850,243.499 246.340,247.019 242.600 C 259.651 229.181,260.123 228.578,258.652 227.720 C 258.070 227.381,254.103 223.793,245.197 215.552 C 238.407 209.268,238.436 209.285,236.775 210.682 M17.870 220.700 C 17.772 220.865,17.566 221.810,17.411 222.800 C 17.256 223.790,16.836 225.590,16.478 226.800 C 15.525 230.018,15.534 247.453,16.490 251.200 C 16.855 252.630,17.267 254.430,17.405 255.200 C 17.727 257.004,19.989 264.477,20.370 265.000 C 20.531 265.220,20.983 266.300,21.376 267.400 C 25.505 278.970,31.147 285.761,55.414 308.368 C 57.166 310.000,60.043 312.700,61.806 314.368 C 63.569 316.036,67.706 319.920,71.000 323.000 C 77.262 328.855,82.409 333.684,86.800 337.821 C 88.230 339.169,90.917 341.695,92.772 343.436 C 94.626 345.176,97.956 348.327,100.172 350.438 C 102.387 352.550,105.457 355.430,106.994 356.838 C 110.358 359.922,116.321 365.528,118.800 367.937 C 123.972 372.962,133.628 379.088,140.628 381.785 C 142.153 382.373,144.030 383.102,144.800 383.407 C 157.715 388.514,182.932 388.477,192.783 383.335 C 193.343 383.044,194.043 382.804,194.340 382.802 C 195.205 382.799,204.711 378.137,207.996 376.106 C 222.204 367.323,234.579 351.456,239.041 336.300 C 239.348 335.255,239.883 333.455,240.229 332.300 C 244.599 317.710,242.550 296.189,235.390 281.483 C 232.700 275.958,232.649 275.949,228.450 280.263 C 217.796 291.209,213.701 295.850,212.335 298.528 L 211.482 300.200 212.241 304.000 C 213.927 312.441,213.151 321.979,210.172 329.431 C 209.637 330.769,209.200 331.953,209.200 332.063 C 209.200 332.613,205.572 338.506,203.940 340.606 C 198.430 347.699,188.883 354.243,181.473 356.006 C 168.806 359.020,159.388 358.259,149.622 353.431 C 146.590 351.932,145.438 351.249,141.789 348.791 C 140.468 347.901,137.759 345.425,129.747 337.784 C 122.628 330.994,120.805 329.278,110.217 319.400 C 98.434 308.407,94.439 304.653,87.200 297.774 C 85.550 296.206,82.580 293.422,80.600 291.586 C 70.088 281.840,57.528 269.777,55.761 267.730 C 50.262 261.359,46.768 253.620,45.445 244.883 C 45.098 242.590,44.494 241.686,42.691 240.754 C 37.497 238.071,27.336 229.475,21.823 223.100 C 19.723 220.672,18.372 219.851,17.870 220.700 " stroke="none" fill="#fbfbfb" fill-rule="evenodd"></path></g></svg>